<svg width="774" height="94" viewBox="0 0 774 94" fill="none" xmlns="http://www.w3.org/2000/svg">
    <path d="M15.3292 48.3416L0.723607 77.5528C0.391156 78.2177 0.874676 79 1.61806 79H772.382C773.125 79 773.609 78.2177 773.276 77.5528L758.671 48.3416C758.249 47.4971 758.249 46.5029 758.671 45.6584L773.276 16.4472C773.609 15.7823 773.125 15 772.382 15H1.61803C0.874652 15 0.391157 15.7823 0.723607 16.4472L15.3292 45.6584C15.7515 46.5029 15.7515 47.4971 15.3292 48.3416Z" fill="#CA3947"/>
    <circle cx="102" cy="47" r="47" fill="#202026"/>
    <circle cx="102" cy="47" r="43.5" fill="#202026" stroke="#CA3947"/>
    <circle cx="139" cy="7" r="4" fill="#CA3947"/>
    <path d="M95.2376 43.9386V31.81H98.2901V60.3H95.2376V56.5556C93.5553 59.3232 91.0455 60.707 87.7081 60.707C84.9676 60.707 82.702 59.7166 80.9112 57.7359C79.1475 55.728 78.2657 53.2318 78.2657 50.2471C78.2657 47.2624 79.1475 44.7662 80.9112 42.7583C82.702 40.7504 84.9676 39.7465 87.7081 39.7465C91.0455 39.7465 93.5553 41.1439 95.2376 43.9386ZM95.2783 50.2471C95.2783 48.0493 94.6135 46.2178 93.284 44.7526C91.9544 43.2874 90.2993 42.5548 88.3186 42.5548C86.3378 42.5548 84.6827 43.2874 83.3532 44.7526C82.0236 46.2178 81.3589 48.0493 81.3589 50.2471C81.3589 52.4178 82.0236 54.2357 83.3532 55.7009C84.6827 57.1661 86.3378 57.8987 88.3186 57.8987C90.2993 57.8987 91.9544 57.1661 93.284 55.7009C94.6135 54.2357 95.2783 52.4178 95.2783 50.2471ZM102.959 60.3V31.81H115.82C118.479 31.81 120.542 32.5155 122.007 33.9264C123.472 35.3373 124.205 37.1146 124.205 39.2581C124.205 40.6962 123.852 41.985 123.146 43.1246C122.468 44.2642 121.518 45.1189 120.297 45.6887C121.952 46.2314 123.228 47.1268 124.123 48.3749C125.046 49.5959 125.507 51.0475 125.507 52.7298C125.507 54.9005 124.761 56.7048 123.268 58.1429C121.776 59.581 119.714 60.3 117.082 60.3H102.959ZM116.838 47.276H106.052V57.3696H116.797C118.561 57.3696 119.917 56.9083 120.867 55.9858C121.844 55.0361 122.332 53.8694 122.332 52.4856C122.332 51.0747 121.844 49.8537 120.867 48.8226C119.917 47.7915 118.574 47.276 116.838 47.276ZM115.576 34.7404H106.052V44.3456H116.472C117.801 44.3456 118.886 43.8572 119.728 42.8804C120.596 41.9036 121.03 40.7504 121.03 39.4209C121.03 38.0914 120.542 36.9789 119.565 36.0835C118.615 35.1881 117.286 34.7404 115.576 34.7404Z" fill="white"/>
</svg>
