<svg width="688" height="94" viewBox="0 0 688 94" fill="none" xmlns="http://www.w3.org/2000/svg">
    <path d="M15.3292 48.3416L0.723607 77.5528C0.391156 78.2177 0.874671 79 1.61805 79H686.382C687.125 79 687.609 78.2177 687.276 77.5528L672.671 48.3416C672.249 47.4971 672.249 46.5029 672.671 45.6584L687.276 16.4472C687.609 15.7823 687.125 15 686.382 15H1.61803C0.874652 15 0.391157 15.7823 0.723607 16.4472L15.3292 45.6584C15.7515 46.5029 15.7515 47.4971 15.3292 48.3416Z" fill="#CA3947"/>
    <circle cx="83" cy="47" r="47" fill="#202026"/>
    <circle cx="83" cy="47" r="43.5" fill="#202026" stroke="#CA3947"/>
    <circle cx="120" cy="7" r="4" fill="#CA3947"/>
    <path d="M76.2377 43.9386V31.81H79.2902V60.3H76.2377V56.5556C74.5554 59.3232 72.0456 60.707 68.7082 60.707C65.9677 60.707 63.7021 59.7166 61.9113 57.7359C60.1476 55.728 59.2658 53.2318 59.2658 50.2471C59.2658 47.2624 60.1476 44.7662 61.9113 42.7583C63.7021 40.7504 65.9677 39.7465 68.7082 39.7465C72.0456 39.7465 74.5554 41.1439 76.2377 43.9386ZM76.2784 50.2471C76.2784 48.0493 75.6136 46.2178 74.2841 44.7526C72.9546 43.2874 71.2994 42.5548 69.3187 42.5548C67.338 42.5548 65.6828 43.2874 64.3533 44.7526C63.0238 46.2178 62.359 48.0493 62.359 50.2471C62.359 52.4178 63.0238 54.2357 64.3533 55.7009C65.6828 57.1661 67.338 57.8987 69.3187 57.8987C71.2994 57.8987 72.9546 57.1661 74.2841 55.7009C75.6136 54.2357 76.2784 52.4178 76.2784 50.2471ZM83.9593 60.3V31.81H96.8205C99.4795 31.81 101.542 32.5155 103.007 33.9264C104.472 35.3373 105.205 37.1146 105.205 39.2581C105.205 40.6962 104.852 41.985 104.146 43.1246C103.468 44.2642 102.518 45.1189 101.297 45.6887C102.953 46.2314 104.228 47.1268 105.123 48.3749C106.046 49.5959 106.507 51.0475 106.507 52.7298C106.507 54.9005 105.761 56.7048 104.269 58.1429C102.776 59.581 100.714 60.3 98.0822 60.3H83.9593ZM97.838 47.276H87.0525V57.3696H97.7973C99.5609 57.3696 100.918 56.9083 101.867 55.9858C102.844 55.0361 103.332 53.8694 103.332 52.4856C103.332 51.0747 102.844 49.8537 101.867 48.8226C100.918 47.7915 99.5745 47.276 97.838 47.276ZM96.5763 34.7404H87.0525V44.3456H97.4717C98.8012 44.3456 99.8865 43.8572 100.728 42.8804C101.596 41.9036 102.03 40.7504 102.03 39.4209C102.03 38.0914 101.542 36.9789 100.565 36.0835C99.6152 35.1881 98.2857 34.7404 96.5763 34.7404Z" fill="white"/>
</svg>
