<svg width="23" height="29" viewBox="0 0 23 29" fill="none" xmlns="http://www.w3.org/2000/svg">
    <path d="M19.205 14.9284C19.173 11.3726 22.1241 9.66552 22.2576 9.58229C20.5969 7.16512 18.0125 6.83398 17.0905 6.79502C14.8923 6.57367 12.7991 8.0824 11.6849 8.0824C10.5707 8.0824 8.84775 6.8269 7.02513 6.86231C4.62582 6.89773 2.41695 8.24887 1.1817 10.3845C-1.30839 14.6823 0.546276 21.0519 2.97051 24.5404C4.1577 26.2457 5.57094 28.1671 7.42916 28.0962C9.21975 28.0254 9.89612 26.9452 12.0569 26.9452C14.2177 26.9452 14.8265 28.0962 16.7185 28.0626C18.6426 28.0254 19.8636 26.3201 21.0419 24.6095C22.4017 22.6297 22.9642 20.7137 22.9962 20.6128C22.9535 20.595 19.2442 19.1802 19.205 14.9284Z" fill="#CA3947"/>
    <path d="M15.6505 4.48723C16.6366 3.299 17.3023 1.6468 17.1189 0C15.6984 0.0567277 13.9792 0.942097 12.9592 2.13032C12.0462 3.18047 11.2452 4.8627 11.4623 6.47597C13.0465 6.59816 14.6643 5.6737 15.6505 4.48723Z" fill="#CA3947"/>
</svg>
