<svg width="48" height="48" viewBox="0 0 48 48" fill="none" xmlns="http://www.w3.org/2000/svg">
    <circle cx="24" cy="24" r="23.5" stroke="#CA3947"/>
    <circle cx="44.4" cy="2.4" r="2.4" fill="#CA3947"/>
    <path d="M20.3115 22.8754V16.2598H21.9765V31.7998H20.3115V29.7574C19.3939 31.267 18.0249 32.0218 16.2045 32.0218C14.7097 32.0218 13.4739 31.4816 12.4971 30.4012C11.5351 29.306 11.0541 27.9444 11.0541 26.3164C11.0541 24.6884 11.5351 23.3268 12.4971 22.2316C13.4739 21.1364 14.7097 20.5888 16.2045 20.5888C18.0249 20.5888 19.3939 21.351 20.3115 22.8754ZM20.3337 26.3164C20.3337 25.1176 19.9711 24.1186 19.2459 23.3194C18.5207 22.5202 17.6179 22.1206 16.5375 22.1206C15.4571 22.1206 14.5543 22.5202 13.8291 23.3194C13.1039 24.1186 12.7413 25.1176 12.7413 26.3164C12.7413 27.5004 13.1039 28.492 13.8291 29.2912C14.5543 30.0904 15.4571 30.49 16.5375 30.49C17.6179 30.49 18.5207 30.0904 19.2459 29.2912C19.9711 28.492 20.3337 27.5004 20.3337 26.3164ZM24.5233 31.7998V16.2598H31.5385C32.9889 16.2598 34.1137 16.6446 34.9129 17.4142C35.7121 18.1838 36.1117 19.1532 36.1117 20.3224C36.1117 21.1068 35.9193 21.8098 35.5345 22.4314C35.1645 23.053 34.6465 23.5192 33.9805 23.83C34.8833 24.126 35.5789 24.6144 36.0673 25.2952C36.5705 25.9612 36.8221 26.753 36.8221 27.6706C36.8221 28.8546 36.4151 29.8388 35.6011 30.6232C34.7871 31.4076 33.6623 31.7998 32.2267 31.7998H24.5233ZM32.0935 24.6958H26.2105V30.2014H32.0713C33.0333 30.2014 33.7733 29.9498 34.2913 29.4466C34.8241 28.9286 35.0905 28.2922 35.0905 27.5374C35.0905 26.7678 34.8241 26.1018 34.2913 25.5394C33.7733 24.977 33.0407 24.6958 32.0935 24.6958ZM31.4053 17.8582H26.2105V23.0974H31.8937C32.6189 23.0974 33.2109 22.831 33.6697 22.2982C34.1433 21.7654 34.3801 21.1364 34.3801 20.4112C34.3801 19.686 34.1137 19.0792 33.5809 18.5908C33.0629 18.1024 32.3377 17.8582 31.4053 17.8582Z" fill="#A3A3AD"/>
</svg>
