<svg width="72" height="72" viewBox="0 0 72 72" fill="none" xmlns="http://www.w3.org/2000/svg">
    <rect width="72" height="72" rx="19" fill="url(#paint0_linear)"/>
    <circle cx="36" cy="36" r="30.7891" fill="url(#paint1_radial)" stroke="#E8394A"/>
    <circle cx="62.5" cy="9.5" r="2.5" fill="#E8394A"/>
    <path d="M31.2197 34.2604V25.5858H33.4029V45.9624H31.2197V43.2843C30.0165 45.2638 28.2214 46.2535 25.8344 46.2535C23.8744 46.2535 22.254 45.5452 20.9732 44.1285C19.7118 42.6924 19.081 40.9071 19.081 38.7724C19.081 36.6377 19.7118 34.8523 20.9732 33.4163C22.254 31.9802 23.8744 31.2622 25.8344 31.2622C28.2214 31.2622 30.0165 32.2616 31.2197 34.2604ZM31.2488 38.7724C31.2488 37.2005 30.7733 35.8906 29.8224 34.8426C28.8715 33.7947 27.6877 33.2707 26.2711 33.2707C24.8544 33.2707 23.6706 33.7947 22.7197 34.8426C21.7688 35.8906 21.2934 37.2005 21.2934 38.7724C21.2934 40.3249 21.7688 41.6251 22.7197 42.673C23.6706 43.721 24.8544 44.2449 26.2711 44.2449C27.6877 44.2449 28.8715 43.721 29.8224 42.673C30.7733 41.6251 31.2488 40.3249 31.2488 38.7724ZM36.7423 45.9624V25.5858H45.9408C47.8426 25.5858 49.3175 26.0904 50.3654 27.0995C51.4134 28.1087 51.9373 29.3798 51.9373 30.9129C51.9373 31.9414 51.6851 32.8632 51.1805 33.6782C50.6953 34.4933 50.0161 35.1046 49.1428 35.5121C50.3266 35.9003 51.2387 36.5407 51.8791 37.4334C52.5389 38.3066 52.8688 39.3449 52.8688 40.5481C52.8688 42.1006 52.3352 43.3911 51.2678 44.4196C50.2005 45.4481 48.7256 45.9624 46.8432 45.9624H36.7423ZM46.6686 36.6474H38.9546V43.8665H46.6394C47.9008 43.8665 48.8712 43.5366 49.5504 42.8768C50.249 42.1976 50.5983 41.3631 50.5983 40.3734C50.5983 39.3643 50.249 38.491 49.5504 37.7536C48.8712 37.0161 47.9106 36.6474 46.6686 36.6474ZM45.7662 27.6817H38.9546V34.5515H46.4066C47.3575 34.5515 48.1337 34.2022 48.7353 33.5036C49.3563 32.805 49.6668 31.9802 49.6668 31.0293C49.6668 30.0784 49.3175 29.2827 48.6189 28.6423C47.9397 28.0019 46.9888 27.6817 45.7662 27.6817Z" fill="white"/>
    <defs>
        <linearGradient id="paint0_linear" x1="36" y1="0" x2="36" y2="72" gradientUnits="userSpaceOnUse">
            <stop stop-color="#2E2D32"/>
            <stop offset="1" stop-color="#131315"/>
        </linearGradient>
        <radialGradient id="paint1_radial" cx="0" cy="0" r="1" gradientUnits="userSpaceOnUse" gradientTransform="translate(36 67.2891) rotate(-90) scale(62.5781)">
            <stop offset="0.0725002" stop-color="#252429"/>
            <stop offset="0.7375" stop-color="#0A0A0A"/>
        </radialGradient>
    </defs>
</svg>
