<svg width="768" height="93" viewBox="0 0 768 93" fill="none" xmlns="http://www.w3.org/2000/svg">
    <path d="M542.151 47.542L535 57.413V93H1052V67L1046.6 58.3626L1042.05 75.3497L1040.1 71.4013L1037.5 62.1884L1032.3 56.2658L1028.39 59.8851L1024.49 63.1755L1018.64 47.7109L1015.39 53.9625L1012.79 50.0141L1010.84 51.3303L1006.94 47.3819V51.9883L1002.39 49.027L997.192 44.7496L993.942 51.3303L989.391 56.2658L984.191 54.9496L980.291 57.2529V65.1497L977.04 63.1755L973.79 56.2658L967.939 58.569V62.1884L964.039 59.8851L962.089 53.9625L958.189 52.9754L955.588 49.027L953.638 51.3303H950.388L949.088 53.9625L942.587 56.2658L938.687 62.1884L936.737 51.9883C935.87 51.3303 933.616 49.8167 931.536 49.027C929.456 48.2373 930.669 51.3303 931.536 52.9754L927.636 50.0141L924.385 52.9754L921.785 50.0141L918.535 51.9883L913.334 45.7367L909.434 47.7109L906.834 51.9883L904.234 47.7109H900.983L893.833 42.7754L891.883 50.0141H887.332V53.9625L881.482 58.0711L876.931 44.9097L874.331 50.1742L870.431 42.6065L868.48 46.5549L865.23 44.9097L863.28 50.1742L859.38 47.542L855.479 58.0711L853.529 55.4388L850.279 58.4001L847.028 54.7807L844.428 51.4904L839.878 50.1742L836.627 52.4775L834.027 45.8968L829.477 50.1742L825.577 43.9226L823.626 53.4646L821.676 48.5291C820.376 47.3226 817.646 44.7123 817.126 43.9226C816.476 42.9355 815.826 47.542 815.176 48.5291C814.655 49.3188 812.359 47.542 811.275 46.5549L808.675 50.1742L804.775 43.9226L802.174 54.4517L798.924 47.542L794.374 38L789.173 39.9742L785.923 38L782.673 47.542L774.222 41.6194V48.5291L770.321 43.9226V54.7807L767.071 51.4904L763.821 55.4388L761.871 54.4517L758.62 58.0711L756.02 51.4904L752.12 52.4775L750.17 50.1742L746.919 51.4904L744.969 47.542L739.119 50.8323V47.542L735.868 50.1742L731.968 47.542L729.368 48.5291L725.467 47.542L723.517 50.8323L718.967 52.4775L716.367 50.8323L714.416 56.4259L707.916 51.4904L704.665 55.4388L702.715 60.7033L698.165 58.4001L694.915 60.7033V54.7807L691.014 58.0711L684.514 55.4388L678.013 58.4001L674.113 50.1742L669.562 51.4904L663.712 58.0711L658.511 52.4775L655.261 54.7807L653.961 51.4904L650.711 58.4001L649.41 54.4517L644.21 62.6775L641.61 50.1742L636.409 54.4517L633.159 50.1742L626.008 60.7033V55.4388L620.808 63.0066V61.0324L616.907 64.6517L614.957 55.1098L611.057 58.0711L607.807 51.4904L602.606 52.4775L598.706 56.7549L594.155 49.1871L590.255 56.7549L583.754 50.5033L579.854 51.4904L577.904 48.2L575.954 50.5033L573.354 49.1871L570.753 50.5033L567.503 47.542L564.903 49.1871L560.352 47.542L556.452 51.4904L548.001 49.1871C547.568 51.1614 546.441 55.4388 545.401 56.7549C544.361 58.0711 542.801 51.1614 542.151 47.542Z" fill="#CA3947"/>
    <path d="M169.067 38.9448L163 43L160.168 34.3242L155.276 28.3835L152.959 34.3242L147.295 26.4033L142.146 13.2016L128.243 2.64033L123.094 17.1621H120.004L113.825 2.64033L110.736 9.90122L105.071 17.1621L101.467 13.2016L97.3476 20.4625L91.1686 9.90122L85.5045 17.1621L76.7508 3.30041L67.4823 0L61.3032 18.5613L49.46 10.5613L41.7362 43.8024L28.8632 39.6049L14.4454 59.5654L0 58V93L535 93V48L530.233 40.1044L527.469 43.7348L524.705 47.0352L520.559 31.5233L518.256 37.7941L516.413 33.8336L515.031 35.1538L512.267 31.1933V35.8139L509.043 32.8435L505.357 28.553L503.054 35.1538L499.829 40.1044L496.144 38.7842L493.38 41.0945V49.0155L491.076 47.0352L488.773 40.1044L484.627 42.4147V46.0451L481.863 43.7348L480.481 37.7941L477.717 36.804L475.874 32.8435L474.492 35.1538H472.189L471.268 37.7941L466.661 40.1044L463.897 46.0451L462.515 35.8139C461.901 35.1538 460.304 33.6356 458.829 32.8435C457.355 32.0514 458.215 35.1538 458.829 36.804L456.065 33.8336L453.762 36.804L451.919 33.8336L449.616 35.8139L445.931 29.5431L443.167 31.5233L441.324 35.8139L439.481 31.5233H437.178L432.11 26.5727L430.728 33.8336H427.504V37.7941L423.358 41.9152L420.133 28.7136L418.29 33.9942L415.526 26.4033L414.144 30.3638L411.841 28.7136L410.459 33.9942L407.695 31.3539L404.931 41.9152L403.549 39.2749L401.245 42.2452L398.942 38.6148L397.099 35.3144L393.875 33.9942L391.571 36.3045L389.729 29.7037L386.504 33.9942L383.74 27.7234L382.358 37.2946L380.976 32.344C380.055 31.1339 378.12 28.5155 377.751 27.7234C377.291 26.7333 376.83 31.3539 376.369 32.344C376.001 33.1361 374.373 31.3539 373.605 30.3638L371.763 33.9942L368.999 27.7234L367.156 38.2848L364.853 31.3539L361.628 21.7827L357.942 23.763L355.639 21.7827L353.336 31.3539L347.347 25.4132V32.344L344.583 27.7234V38.6148L342.28 35.3144L339.976 39.2749L338.594 38.2848L336.291 41.9152L334.448 35.3144L331.684 36.3045L330.302 33.9942L327.999 35.3144L326.617 31.3539L322.471 34.6543V31.3539L320.167 33.9942L317.403 31.3539L315.561 32.344L312.797 31.3539L311.415 34.6543L308.19 36.3045L306.347 34.6543L304.965 40.265L300.359 35.3144L298.055 39.2749L296.673 44.5555L293.449 42.2452L291.145 44.5555V38.6148L288.381 41.9152L283.774 39.2749L279.168 42.2452L276.404 33.9942L273.179 35.3144L269.033 41.9152L265.348 36.3045L263.044 38.6148L262.123 35.3144L259.82 42.2452L258.898 38.2848L255.213 46.5358L253.37 33.9942L249.685 38.2848L247.381 33.9942L242.314 44.5555V39.2749L238.629 46.8658V44.8856L235.865 48.516L234.483 38.9448L231.719 41.9152L229.415 35.3144L225.73 36.3045L222.966 40.595L219.741 33.0041L216.977 40.595L212.37 34.3243L209.606 35.3144L208.224 32.014L206.842 34.3243L205 33.0041L203.157 34.3243L200.854 31.3539L199.011 33.0041L195.786 31.3539L193.022 35.3144L187.034 33.0041C186.726 34.9843 185.928 39.2749 185.191 40.595C184.454 41.9152 183.348 34.9843 182.888 31.3539L177.82 41.2551L173.674 38.9448L170.91 42.9053L169.067 38.9448Z" fill="#CA3947"/>
</svg>
