<svg width="349" height="653" viewBox="0 0 349 653" fill="none" xmlns="http://www.w3.org/2000/svg">
    <path d="M34 124H22V148H34V124Z" fill="#A3A3AD"/>
    <path d="M34 169H22V212H34V169Z" fill="#A3A3AD"/>
    <path d="M327 181H315V251H327V181Z" fill="#A3A3AD"/>
    <path d="M34 224H22V267H34V224Z" fill="#A3A3AD"/>
    <g filter="url(#filter0_ddd)">
        <path d="M325 576C325 600.853 304.853 621 280 621H69.07C44.2171 621 24.07 600.853 24.0675 576C24.0498 404.322 23.9436 232.643 24.0398 60.9649C24.0538 36.1258 44.1957 16 69.0348 16H280C304.853 16 325 36.1472 325 61C325 232.667 325 404.333 325 576Z" fill="#A3A3AD"/>
    </g>
    <path d="M319 575C319 597.091 301.091 615 279 615H70.0671C47.9757 615 30.0672 597.091 30.0652 575C30.0493 403.99 29.9434 232.98 30.0406 61.9695C30.0531 39.89 47.9571 22 70.0366 22H279C301.091 22 319 39.9086 319 62C319 233 319 404 319 575Z" fill="#06050A"/>
    <mask id="mask0" mask-type="alpha" maskUnits="userSpaceOnUse" x="38" y="30" width="273" height="577">
        <path d="M311 575C311 592.673 296.673 607 279 607H70.0634C52.3903 607 38.0635 592.673 38.0621 575C38.0492 403.992 37.9424 232.984 38.0422 61.9763C38.0525 44.3124 52.3758 30 70.0397 30H279C296.673 30 311 44.3269 311 62C311 233 311 404 311 575Z" fill="#17171D"/>
    </mask>
    <g mask="url(#mask0)">
        <path d="M311 575C311 592.673 296.673 607 279 607H70.0634C52.3903 607 38.0635 592.673 38.0621 575C38.0492 403.992 37.9424 232.984 38.0422 61.9763C38.0525 44.3124 52.3758 30 70.0397 30H279C296.673 30 311 44.3269 311 62C311 233 311 404 311 575Z" fill="#17171D"/>
        <path d="M-46.9267 433.505L-96 436.211V468H332V461.236L330.229 455.825L328.459 456.502L327.7 453.796L326.688 447.484L324.664 443.425L323.147 445.905L321.629 448.16L319.352 437.564L318.087 441.847L317.076 439.142L316.317 440.044L314.799 437.338V440.495L313.028 438.465L311.005 435.535L309.74 440.044L307.969 443.425L305.946 442.524L304.428 444.102V449.513L303.163 448.16L301.898 443.425L299.622 445.004V447.484L298.104 445.905L297.345 441.847L295.827 441.171L294.816 438.465L294.057 440.044H292.792L292.286 441.847L289.757 443.425L288.239 447.484L287.48 440.495C287.143 440.044 286.266 439.007 285.456 438.465C284.647 437.924 285.119 440.044 285.456 441.171L283.939 439.142L282.674 441.171L281.662 439.142L280.397 440.495L278.374 436.211L276.856 437.564L275.844 440.495L274.832 437.564H273.567L270.785 434.182L270.026 439.142H268.255V441.847L265.979 437.338L264.208 428.32L263.196 431.927L261.678 426.742L260.92 429.447L259.655 428.32L258.896 431.927L257.378 430.124L255.861 437.338L255.102 435.535L253.837 437.564L252.572 435.084L251.56 432.829L249.79 431.927L248.525 433.505L247.513 428.996L245.742 431.927L244.225 427.644L243.466 434.182L242.707 430.8C242.201 429.973 241.139 428.185 240.936 427.644C240.683 426.967 240.43 430.124 240.177 430.8C239.975 431.341 239.081 430.124 238.66 429.447L237.648 431.927L236.13 427.644L235.118 434.858L233.853 430.124L232.083 423.585L230.059 424.938L228.794 423.585L227.53 430.124L224.241 426.065V430.8L222.723 427.644V435.084L221.459 432.829L220.194 435.535L219.435 434.858L218.17 437.338L217.158 432.829L215.641 433.505L214.882 431.927L213.617 432.829L212.858 430.124L210.582 432.378V430.124L209.317 431.927L207.799 430.124L206.787 430.8L205.27 430.124L204.511 432.378L202.74 433.505L201.728 432.378L200.969 436.211L198.44 432.829L197.175 435.535L196.416 439.142L194.645 437.564L193.381 439.142V435.084L191.863 437.338L189.333 435.535L186.804 437.564L185.286 431.927L183.515 432.829L181.239 437.338L179.215 433.505L177.95 435.084L177.444 432.829L176.18 437.564L175.674 434.858L173.65 440.495L172.638 431.927L170.615 434.858L169.35 431.927L166.567 439.142V435.535L164.544 436.211V434.858L163.026 437.338L162.267 430.8L160.749 432.829L159.485 428.32L157.461 428.996L155.943 431.927L154.173 426.742L152.655 431.927L150.125 427.644L148.608 428.32L147.849 426.065L147.09 427.644L146.078 426.742L145.066 427.644L143.801 425.615L142.79 426.742L141.019 425.615L139.501 428.32L136.213 426.742C136.044 428.095 135.606 431.025 135.201 431.927C134.796 432.829 134.189 428.095 133.936 425.615L131.154 432.378L128.877 430.8L127.359 433.505L126.348 430.8L123.565 431.927C123.396 431.552 118.759 433.505 118.759 433.505L115.976 427.644L111.17 423.585L108.894 427.644L103.329 433.505V422.233L98.2695 413.215C98.6068 414.868 93.7163 424.938 93.7163 424.938L89.1631 418.175L84.6099 406L79.5508 415.92H76.5154L70.4444 406L67.409 410.96L61.844 415.92L58.3026 413.215L54.2553 418.175L48.1844 410.96L42.6194 415.92L34.0189 410.96L24.9125 408.705L18.8416 415.92H7.20567L-0.38298 422.233H-13.0307L-27.1962 424.938L-46.9267 433.505Z" fill="#CA3947"/>
        <circle cx="89.0464" cy="543.874" r="13.0464" stroke="#BABAC3"/>
        <path d="M85.1324 546.483H92.9603" stroke="#BABAC3"/>
        <path d="M85.1324 543.874H92.9603" stroke="#BABAC3"/>
        <path d="M85.1324 541.265H92.9603" stroke="#BABAC3"/>
        <circle cx="174.5" cy="543.874" r="20.8742" fill="#CA3947"/>
        <rect x="167.325" y="536.699" width="14.351" height="14.351" fill="#F0C3C8"/>
        <circle cx="259.954" cy="543.874" r="13.0464" stroke="#BABAC3"/>
        <path d="M256.692 547.462H263.868" stroke="#BABAC3"/>
        <path d="M261.911 540.939H263.867" stroke="#BABAC3"/>
        <path d="M256.692 540.939H258.649" stroke="#BABAC3"/>
        <path d="M257.018 541.265V547.788M263.541 541.265V547.788" stroke="#BABAC3"/>
        <path d="M260.28 538.656V545.179M260.28 545.179L258.323 543.222M260.28 545.179L262.237 543.222" stroke="#BABAC3"/>
        <path d="M120.313 334.6H121.273L124.333 339.184L127.393 334.6H128.353V343H127.405V336.196L124.345 340.696H124.297L121.237 336.208V343H120.313V334.6ZM130.995 334.6H131.943V343H130.995V334.6ZM134.583 334.6H135.471L140.763 341.332V334.6H141.687V343H140.931L135.507 336.112V343H134.583V334.6Z" fill="#72727E"/>
        <path d="M125.708 325V307.984H124.148C124.036 308.624 123.828 309.152 123.524 309.568C123.22 309.984 122.844 310.312 122.396 310.552C121.964 310.792 121.476 310.96 120.932 311.056C120.388 311.136 119.828 311.176 119.252 311.176V312.808H123.668V325H125.708ZM134.22 312.4C134.22 311.968 134.3 311.592 134.46 311.272C134.62 310.952 134.828 310.68 135.084 310.456C135.356 310.232 135.676 310.064 136.044 309.952C136.412 309.84 136.796 309.784 137.196 309.784C138.028 309.784 138.708 310.008 139.236 310.456C139.78 310.888 140.052 311.536 140.052 312.4C140.052 313.264 139.788 313.936 139.26 314.416C138.732 314.896 138.06 315.136 137.244 315.136C136.828 315.136 136.436 315.08 136.068 314.968C135.7 314.856 135.38 314.688 135.108 314.464C134.836 314.24 134.62 313.96 134.46 313.624C134.3 313.272 134.22 312.864 134.22 312.4ZM132.06 312.328C132.06 313.096 132.276 313.808 132.708 314.464C133.14 315.104 133.716 315.568 134.436 315.856C133.476 316.192 132.74 316.736 132.228 317.488C131.716 318.224 131.46 319.096 131.46 320.104C131.46 320.968 131.604 321.728 131.892 322.384C132.196 323.024 132.604 323.56 133.116 323.992C133.644 324.424 134.26 324.744 134.964 324.952C135.668 325.16 136.428 325.264 137.244 325.264C138.028 325.264 138.764 325.152 139.452 324.928C140.14 324.704 140.732 324.376 141.228 323.944C141.74 323.496 142.14 322.952 142.428 322.312C142.732 321.672 142.884 320.936 142.884 320.104C142.884 319.048 142.636 318.16 142.14 317.44C141.644 316.704 140.884 316.176 139.86 315.856C140.58 315.536 141.148 315.064 141.564 314.44C141.996 313.8 142.212 313.096 142.212 312.328C142.212 311.784 142.116 311.256 141.924 310.744C141.732 310.216 141.428 309.752 141.012 309.352C140.612 308.936 140.084 308.608 139.428 308.368C138.772 308.112 137.98 307.984 137.052 307.984C136.396 307.984 135.764 308.08 135.156 308.272C134.564 308.464 134.036 308.744 133.572 309.112C133.108 309.48 132.74 309.936 132.468 310.48C132.196 311.008 132.06 311.624 132.06 312.328ZM133.62 320.2C133.62 319.704 133.708 319.256 133.884 318.856C134.076 318.456 134.332 318.112 134.652 317.824C134.988 317.536 135.372 317.32 135.804 317.176C136.252 317.016 136.724 316.936 137.22 316.936C137.7 316.936 138.148 317.024 138.564 317.2C138.996 317.36 139.372 317.584 139.692 317.872C140.012 318.16 140.26 318.504 140.436 318.904C140.628 319.288 140.724 319.712 140.724 320.176C140.724 320.656 140.636 321.096 140.46 321.496C140.3 321.896 140.06 322.248 139.74 322.552C139.436 322.84 139.068 323.072 138.636 323.248C138.22 323.408 137.756 323.488 137.244 323.488C136.188 323.488 135.316 323.2 134.628 322.624C133.956 322.032 133.62 321.224 133.62 320.2Z" fill="#72727E"/>
        <path d="M133.286 237.04C133.99 240.912 135.662 244.08 138.302 246.544C141 248.949 144.403 250.152 148.51 250.152C151.267 250.152 153.643 249.653 155.638 248.656C157.691 247.6 159.422 246.251 160.83 244.608C162.238 242.907 163.382 240.971 164.262 238.8C165.142 236.629 165.816 234.4 166.286 232.112C166.755 229.824 167.078 227.565 167.254 225.336C167.43 223.107 167.518 221.083 167.518 219.264L167.342 219.088C166.696 220.789 165.846 222.373 164.79 223.84C163.792 225.307 162.56 226.627 161.094 227.8C159.627 228.915 157.926 229.795 155.99 230.44C154.112 231.085 152 231.408 149.654 231.408C146.603 231.408 143.816 230.909 141.294 229.912C138.771 228.856 136.6 227.419 134.782 225.6C133.022 223.723 131.643 221.523 130.646 219C129.648 216.477 129.15 213.691 129.15 210.64C129.15 207.648 129.648 204.92 130.646 202.456C131.702 199.933 133.139 197.763 134.958 195.944C136.776 194.125 138.918 192.717 141.382 191.72C143.904 190.723 146.662 190.224 149.654 190.224C151.179 190.224 152.763 190.371 154.406 190.664C156.107 190.957 157.72 191.485 159.246 192.248C160.83 192.952 162.326 193.979 163.734 195.328C165.142 196.677 166.374 198.408 167.43 200.52C168.486 202.573 169.307 205.096 169.894 208.088C170.539 211.08 170.862 214.6 170.862 218.648C170.862 221.112 170.744 223.693 170.51 226.392C170.275 229.032 169.835 231.643 169.19 234.224C168.603 236.747 167.782 239.152 166.726 241.44C165.67 243.728 164.291 245.752 162.59 247.512C160.947 249.213 158.952 250.563 156.606 251.56C154.318 252.557 151.619 253.056 148.51 253.056C143.347 253.056 139.094 251.677 135.75 248.92C132.464 246.163 130.528 242.203 129.942 237.04H133.286ZM149.654 228.504C152.176 228.504 154.464 228.035 156.518 227.096C158.63 226.157 160.448 224.896 161.974 223.312C163.499 221.669 164.672 219.763 165.494 217.592C166.374 215.421 166.814 213.104 166.814 210.64C166.814 208.235 166.374 205.976 165.494 203.864C164.614 201.693 163.411 199.816 161.886 198.232C160.36 196.648 158.542 195.416 156.43 194.536C154.376 193.597 152.118 193.128 149.654 193.128C147.19 193.128 144.902 193.597 142.79 194.536C140.736 195.475 138.947 196.736 137.422 198.32C135.896 199.904 134.694 201.781 133.814 203.952C132.934 206.064 132.494 208.293 132.494 210.64C132.494 213.045 132.934 215.333 133.814 217.504C134.694 219.675 135.896 221.581 137.422 223.224C138.947 224.808 140.736 226.099 142.79 227.096C144.902 228.035 147.19 228.504 149.654 228.504ZM180.512 231.936C180.395 234.752 180.717 237.304 181.48 239.592C182.301 241.821 183.475 243.728 185 245.312C186.525 246.837 188.403 248.04 190.632 248.92C192.861 249.741 195.384 250.152 198.2 250.152C200.429 250.152 202.6 249.829 204.712 249.184C206.824 248.539 208.672 247.6 210.256 246.368C211.899 245.077 213.189 243.493 214.128 241.616C215.125 239.739 215.624 237.597 215.624 235.192C215.624 232.317 215.037 229.941 213.864 228.064C212.691 226.128 211.136 224.632 209.2 223.576C207.264 222.52 205.064 221.816 202.6 221.464C200.195 221.112 197.731 221.024 195.208 221.2V218.296C197.437 218.413 199.667 218.325 201.896 218.032C204.184 217.68 206.237 217.035 208.056 216.096C209.875 215.099 211.341 213.749 212.456 212.048C213.629 210.347 214.216 208.176 214.216 205.536C214.216 203.424 213.717 201.576 212.72 199.992C211.781 198.408 210.52 197.117 208.936 196.12C207.411 195.123 205.68 194.389 203.744 193.92C201.867 193.392 200.019 193.128 198.2 193.128C195.56 193.128 193.243 193.568 191.248 194.448C189.253 195.328 187.581 196.531 186.232 198.056C184.941 199.581 183.944 201.4 183.24 203.512C182.536 205.624 182.125 207.941 182.008 210.464H178.664C178.664 207.472 179.104 204.744 179.984 202.28C180.923 199.757 182.243 197.616 183.944 195.856C185.645 194.096 187.699 192.717 190.104 191.72C192.509 190.723 195.208 190.224 198.2 190.224C200.664 190.224 203.04 190.517 205.328 191.104C207.675 191.691 209.728 192.6 211.488 193.832C213.307 195.064 214.773 196.648 215.888 198.584C217.003 200.52 217.56 202.837 217.56 205.536C217.56 207.355 217.267 209.056 216.68 210.64C216.152 212.224 215.36 213.632 214.304 214.864C213.248 216.096 211.987 217.123 210.52 217.944C209.053 218.707 207.44 219.205 205.68 219.44V219.616C207.733 219.851 209.581 220.408 211.224 221.288C212.867 222.168 214.245 223.312 215.36 224.72C216.533 226.069 217.413 227.653 218 229.472C218.645 231.232 218.968 233.139 218.968 235.192C218.968 238.184 218.411 240.795 217.296 243.024C216.181 245.253 214.685 247.131 212.808 248.656C210.931 250.123 208.731 251.237 206.208 252C203.685 252.704 201.016 253.056 198.2 253.056C194.856 253.056 191.835 252.587 189.136 251.648C186.496 250.709 184.237 249.36 182.36 247.6C180.541 245.781 179.163 243.581 178.224 241C177.344 238.36 176.992 235.339 177.168 231.936H180.512Z" fill="#BABAC3"/>
        <path d="M208.38 320.896H206.34C206.468 322.368 207.004 323.464 207.948 324.184C208.892 324.904 210.076 325.264 211.5 325.264C213.564 325.264 215.06 324.48 215.988 322.912C216.932 321.328 217.404 319.064 217.404 316.12C217.404 314.504 217.244 313.176 216.924 312.136C216.62 311.08 216.204 310.248 215.676 309.64C215.148 309.032 214.532 308.608 213.828 308.368C213.124 308.112 212.372 307.984 211.572 307.984C210.756 307.984 210.004 308.12 209.316 308.392C208.628 308.664 208.036 309.048 207.54 309.544C207.044 310.024 206.66 310.608 206.388 311.296C206.116 311.968 205.98 312.712 205.98 313.528C205.98 314.36 206.092 315.128 206.316 315.832C206.556 316.536 206.9 317.136 207.348 317.632C207.812 318.128 208.38 318.52 209.052 318.808C209.724 319.08 210.492 319.216 211.356 319.216C212.188 319.216 212.956 319.008 213.66 318.592C214.364 318.16 214.908 317.584 215.292 316.864L215.34 316.912C215.276 319.136 214.932 320.792 214.308 321.88C213.684 322.952 212.748 323.488 211.5 323.488C210.684 323.488 209.98 323.264 209.388 322.816C208.796 322.368 208.46 321.728 208.38 320.896ZM214.98 313.672C214.98 314.168 214.9 314.648 214.74 315.112C214.58 315.56 214.348 315.96 214.044 316.312C213.74 316.648 213.372 316.92 212.94 317.128C212.508 317.32 212.028 317.416 211.5 317.416C211.004 317.416 210.548 317.32 210.132 317.128C209.732 316.92 209.38 316.648 209.076 316.312C208.788 315.976 208.556 315.592 208.38 315.16C208.22 314.728 208.14 314.28 208.14 313.816C208.14 313.288 208.196 312.784 208.308 312.304C208.436 311.824 208.628 311.4 208.884 311.032C209.156 310.648 209.5 310.344 209.916 310.12C210.348 309.896 210.868 309.784 211.476 309.784C212.052 309.784 212.556 309.888 212.988 310.096C213.42 310.304 213.78 310.592 214.068 310.96C214.372 311.312 214.596 311.72 214.74 312.184C214.9 312.648 214.98 313.144 214.98 313.672ZM229.78 310.072V308.272H221.38L219.796 317.104L221.548 317.2C221.948 316.72 222.404 316.336 222.916 316.048C223.444 315.744 224.044 315.592 224.716 315.592C225.292 315.592 225.812 315.688 226.276 315.88C226.756 316.072 227.164 316.344 227.5 316.696C227.836 317.032 228.092 317.44 228.268 317.92C228.46 318.384 228.556 318.896 228.556 319.456C228.556 320.128 228.46 320.72 228.268 321.232C228.076 321.728 227.812 322.144 227.476 322.48C227.156 322.816 226.772 323.072 226.324 323.248C225.892 323.408 225.436 323.488 224.956 323.488C224.444 323.488 223.972 323.416 223.54 323.272C223.124 323.112 222.756 322.896 222.436 322.624C222.132 322.336 221.884 322.008 221.692 321.64C221.516 321.256 221.412 320.848 221.38 320.416H219.34C219.356 321.184 219.508 321.872 219.796 322.48C220.084 323.088 220.476 323.6 220.972 324.016C221.468 324.416 222.036 324.728 222.676 324.952C223.332 325.16 224.028 325.264 224.764 325.264C225.756 325.264 226.62 325.112 227.356 324.808C228.108 324.488 228.732 324.064 229.228 323.536C229.724 323.008 230.092 322.408 230.332 321.736C230.588 321.048 230.716 320.344 230.716 319.624C230.716 318.648 230.572 317.8 230.284 317.08C229.996 316.344 229.604 315.736 229.108 315.256C228.612 314.76 228.028 314.392 227.356 314.152C226.684 313.912 225.972 313.792 225.22 313.792C224.644 313.792 224.06 313.896 223.468 314.104C222.892 314.296 222.42 314.6 222.052 315.016L222.004 314.968L222.916 310.072H229.78Z" fill="#CA3947"/>
        <path d="M204.211 334.6H205.171L208.231 339.184L211.291 334.6H212.251V343H211.303V336.196L208.243 340.696H208.195L205.135 336.208V343H204.211V334.6ZM217.917 334.54H218.805L222.633 343H221.613L220.629 340.78H216.057L215.061 343H214.089L217.917 334.54ZM220.257 339.928L218.349 335.644L216.429 339.928H220.257ZM227.062 338.716L223.954 334.6H225.07L227.65 338.032L230.206 334.6H231.31L228.202 338.704L231.43 343H230.302L227.614 339.388L224.926 343H223.834L227.062 338.716Z" fill="#72727E"/>
        <path d="M245.903 305C264.85 289.278 278.469 267.421 283.672 242.5" stroke="#39393F" stroke-width="16" stroke-linecap="round"/>
        <path d="M286 219.854C286 158.631 236.08 109 174.5 109C112.92 109 63 158.631 63 219.854C63 254.07 78.5918 284.665 103.097 305" stroke="#39393F" stroke-width="16" stroke-linecap="round"/>
        <mask id="mask1" mask-type="alpha" maskUnits="userSpaceOnUse" x="55" y="101" width="239" height="213">
            <path fill-rule="evenodd" clip-rule="evenodd" d="M174.5 101C108.546 101 55 154.169 55 219.854C55 256.56 71.7375 289.373 97.9881 311.156C101.388 313.978 106.432 313.509 109.253 310.109C112.075 306.709 111.606 301.665 108.206 298.844C85.4461 279.957 71 251.581 71 219.854C71 163.093 117.295 117 174.5 117C231.705 117 278 163.093 278 219.854C278 224.273 281.582 227.854 286 227.854C290.418 227.854 294 224.273 294 219.854C294 154.169 240.454 101 174.5 101ZM291.503 244.135C292.406 239.81 289.632 235.572 285.307 234.669C280.982 233.766 276.743 236.54 275.84 240.865C271.019 263.958 258.394 284.239 240.795 298.844C237.394 301.665 236.925 306.709 239.747 310.109C242.568 313.509 247.612 313.978 251.012 311.156C271.307 294.316 285.918 270.884 291.503 244.135Z" fill="#39393F"/>
        </mask>
        <g mask="url(#mask1)">
            <path d="M103.097 305C78.5918 284.665 63 254.07 63 219.854C63 158.631 112.92 109 174.5 109C236.08 109 286 158.631 286 219.854C286 234.393 283.185 248.278 278.067 261" stroke="#CA3947" stroke-width="16" stroke-linecap="round"/>
        </g>
        <path d="M166.08 151.6H167.556V158.656H171.972V160H166.08V151.6ZM177.217 160.144C175.945 160.144 174.893 159.72 174.061 158.872C173.245 158.04 172.837 157.016 172.837 155.8C172.837 154.6 173.249 153.58 174.073 152.74C174.913 151.884 175.969 151.456 177.241 151.456C178.513 151.456 179.565 151.88 180.397 152.728C181.213 153.56 181.621 154.584 181.621 155.8C181.621 157 181.209 158.02 180.385 158.86C179.545 159.716 178.489 160.144 177.217 160.144ZM177.241 158.788C178.065 158.788 178.745 158.496 179.281 157.912C179.809 157.344 180.073 156.64 180.073 155.8C180.073 154.968 179.805 154.264 179.269 153.688C178.725 153.104 178.041 152.812 177.217 152.812C176.393 152.812 175.713 153.104 175.177 153.688C174.649 154.256 174.385 154.96 174.385 155.8C174.385 156.632 174.653 157.332 175.189 157.9C175.733 158.492 176.417 158.788 177.241 158.788ZM187.029 160.132C185.917 160.132 185.049 159.82 184.425 159.196C183.777 158.556 183.453 157.636 183.453 156.436V151.6H184.929V156.376C184.929 157.144 185.117 157.74 185.493 158.164C185.869 158.572 186.389 158.776 187.053 158.776C187.717 158.776 188.233 158.58 188.601 158.188C188.977 157.78 189.165 157.196 189.165 156.436V151.6H190.641V156.364C190.641 157.588 190.313 158.528 189.657 159.184C189.033 159.816 188.157 160.132 187.029 160.132ZM192.847 151.6H195.979C197.291 151.6 198.367 152 199.207 152.8C200.031 153.592 200.443 154.592 200.443 155.8C200.443 157 200.031 157.996 199.207 158.788C198.359 159.596 197.283 160 195.979 160H192.847V151.6ZM195.979 158.656C196.851 158.656 197.559 158.388 198.103 157.852C198.631 157.324 198.895 156.64 198.895 155.8C198.895 154.968 198.631 154.288 198.103 153.76C197.559 153.216 196.851 152.944 195.979 152.944H194.323V158.656H195.979Z" fill="#EC991C"/>
        <path d="M153.307 150.2C153.615 149.667 154.385 149.667 154.693 150.2L160.235 159.8C160.543 160.333 160.158 161 159.543 161H148.457C147.842 161 147.457 160.333 147.765 159.8L153.307 150.2Z" fill="#EC991C"/>
        <path d="M153.15 158H154.85V159.5H153.15V158ZM153 154L153 153H155L155 154L154.478 157H153.522L153 154Z" fill="#202026"/>
    </g>
    <path d="M251 34V30H98V34C98 43.9411 106.059 52 116 52H233C242.941 52 251 43.9411 251 34Z" fill="#06050A"/>
    <defs>
        <filter id="filter0_ddd" x="0" y="0" width="349" height="653" filterUnits="userSpaceOnUse" color-interpolation-filters="sRGB">
            <feFlood flood-opacity="0" result="BackgroundImageFix"/>
            <feColorMatrix in="SourceAlpha" type="matrix" values="0 0 0 0 0 0 0 0 0 0 0 0 0 0 0 0 0 0 127 0"/>
            <feOffset dy="2"/>
            <feGaussianBlur stdDeviation="4"/>
            <feColorMatrix type="matrix" values="0 0 0 0 0.12549 0 0 0 0 0.12549 0 0 0 0 0.14902 0 0 0 0.32 0"/>
            <feBlend mode="normal" in2="BackgroundImageFix" result="effect1_dropShadow"/>
            <feColorMatrix in="SourceAlpha" type="matrix" values="0 0 0 0 0 0 0 0 0 0 0 0 0 0 0 0 0 0 127 0"/>
            <feOffset dy="8"/>
            <feGaussianBlur stdDeviation="12"/>
            <feColorMatrix type="matrix" values="0 0 0 0 0.12549 0 0 0 0 0.12549 0 0 0 0 0.14902 0 0 0 0.4 0"/>
            <feBlend mode="normal" in2="effect1_dropShadow" result="effect2_dropShadow"/>
            <feColorMatrix in="SourceAlpha" type="matrix" values="0 0 0 0 0 0 0 0 0 0 0 0 0 0 0 0 0 0 127 0"/>
            <feOffset dy="2"/>
            <feGaussianBlur stdDeviation="1"/>
            <feColorMatrix type="matrix" values="0 0 0 0 0.12549 0 0 0 0 0.12549 0 0 0 0 0.14902 0 0 0 0.16 0"/>
            <feBlend mode="normal" in2="effect2_dropShadow" result="effect3_dropShadow"/>
            <feBlend mode="normal" in="SourceGraphic" in2="effect3_dropShadow" result="shape"/>
        </filter>
    </defs>
</svg>
