<svg width="257" height="251" viewBox="0 0 257 251" fill="none" xmlns="http://www.w3.org/2000/svg">
    <path d="M91.936 178.25V133.482H77.6688V129.325H67.5095V133.482H64.277V117.316H62.401V133.482H59.3706V107H57.4946V133.482H52.2803V178.25" stroke="#50505E" stroke-width="0.5" stroke-miterlimit="10"/>
    <path d="M144.271 177.278L137.095 140.914H133.458L129.552 121.149H114.486L110.58 140.914H106.954L99.767 177.278H99.084V217.068H117.854V180.704V177.278V163.989C117.854 161.689 119.71 159.822 122.019 159.822C124.319 159.822 126.185 161.699 126.185 163.989V177.278V180.704V217.068H144.945V177.278H144.271Z" stroke="#50505E" stroke-width="0.5" stroke-miterlimit="10"/>
    <path d="M107.944 179.53H103.442V184.033H107.944V179.53Z" stroke="#50505E" stroke-width="0.5" stroke-miterlimit="10"/>
    <path d="M113.255 167.039H108.752V171.543H113.255V167.039Z" stroke="#50505E" stroke-width="0.5" stroke-miterlimit="10"/>
    <path d="M113.823 190.326H109.32V194.83H113.823V190.326Z" stroke="#50505E" stroke-width="0.5" stroke-miterlimit="10"/>
    <path d="M142.915 191.847H138.413V196.35H142.915V191.847Z" stroke="#50505E" stroke-width="0.5" stroke-miterlimit="10"/>
    <path d="M137.508 160.602H133.006V165.105H137.508V160.602Z" stroke="#50505E" stroke-width="0.5" stroke-miterlimit="10"/>
    <path d="M133.247 148.342H128.744V152.846H133.247V148.342Z" stroke="#50505E" stroke-width="0.5" stroke-miterlimit="10"/>
    <path d="M189.099 24.9895V51.6444L224.252 83.9286V102.5V103.877V230.789H185.847V103.877V102.5V65.7994V48.6518V24.9895H189.099Z" stroke="#50505E" stroke-width="0.5" stroke-miterlimit="10"/>
    <path d="M216.363 102.5H192.36" stroke="#50505E" stroke-width="0.5" stroke-miterlimit="10"/>
    <path d="M216.363 108.265H192.36" stroke="#50505E" stroke-width="0.5" stroke-miterlimit="10"/>
    <path d="M216.363 114.038H192.36" stroke="#50505E" stroke-width="0.5" stroke-miterlimit="10"/>
    <path d="M216.363 119.802H192.36" stroke="#50505E" stroke-width="0.5" stroke-miterlimit="10"/>
    <path d="M216.363 125.566H192.36" stroke="#50505E" stroke-width="0.5" stroke-miterlimit="10"/>
    <path d="M216.363 131.33H192.36" stroke="#50505E" stroke-width="0.5" stroke-miterlimit="10"/>
    <path d="M216.363 137.094H192.36" stroke="#50505E" stroke-width="0.5" stroke-miterlimit="10"/>
    <path d="M216.363 142.858H192.36" stroke="#50505E" stroke-width="0.5" stroke-miterlimit="10"/>
    <path d="M216.363 148.622H192.36" stroke="#50505E" stroke-width="0.5" stroke-miterlimit="10"/>
    <path d="M216.363 154.396H192.36" stroke="#50505E" stroke-width="0.5" stroke-miterlimit="10"/>
    <path d="M216.363 160.16H192.36" stroke="#50505E" stroke-width="0.5" stroke-miterlimit="10"/>
    <path d="M216.363 165.924H192.36" stroke="#50505E" stroke-width="0.5" stroke-miterlimit="10"/>
    <path d="M216.363 171.688H192.36" stroke="#50505E" stroke-width="0.5" stroke-miterlimit="10"/>
    <path d="M216.363 177.452H192.36" stroke="#50505E" stroke-width="0.5" stroke-miterlimit="10"/>
    <path d="M216.363 183.216H192.36" stroke="#50505E" stroke-width="0.5" stroke-miterlimit="10"/>
    <path d="M216.363 188.98H192.36" stroke="#50505E" stroke-width="0.5" stroke-miterlimit="10"/>
    <path d="M216.363 194.744H192.36" stroke="#50505E" stroke-width="0.5" stroke-miterlimit="10"/>
    <path d="M216.363 200.518H192.36" stroke="#50505E" stroke-width="0.5" stroke-miterlimit="10"/>
    <path d="M216.363 206.281H192.36" stroke="#50505E" stroke-width="0.5" stroke-miterlimit="10"/>
    <path d="M216.363 212.046H192.36" stroke="#50505E" stroke-width="0.5" stroke-miterlimit="10"/>
    <path d="M216.363 217.81H192.36" stroke="#50505E" stroke-width="0.5" stroke-miterlimit="10"/>
    <path d="M216.363 223.573H192.36" stroke="#50505E" stroke-width="0.5" stroke-miterlimit="10"/>
    <path d="M49.1523 178.5V155.204H45.4774V135.246H44.1594V155.204H42.0332V143.021H40.7152V155.204H38.4352V152.076H31.2967V155.204H21.2722V230" stroke="#50505E" stroke-width="0.5" stroke-miterlimit="10"/>
    <path d="M42.6777 160.785H24.4564" stroke="#50505E" stroke-width="0.5" stroke-miterlimit="10"/>
    <path d="M42.312 164.942H24.4563" stroke="#50505E" stroke-width="0.5" stroke-miterlimit="10"/>
    <path d="M41.9468 169.089H24.4567" stroke="#50505E" stroke-width="0.5" stroke-miterlimit="10"/>
    <path d="M41.5811 173.246H24.4565" stroke="#50505E" stroke-width="0.5" stroke-miterlimit="10"/>
    <path d="M41.2153 177.394H24.4564" stroke="#50505E" stroke-width="0.5" stroke-miterlimit="10"/>
    <path d="M40.8501 181.551H24.4567" stroke="#50505E" stroke-width="0.5" stroke-miterlimit="10"/>
    <path d="M40.4844 185.698H24.4565" stroke="#50505E" stroke-width="0.5" stroke-miterlimit="10"/>
    <path d="M40.1284 189.855H24.4565" stroke="#50505E" stroke-width="0.5" stroke-miterlimit="10"/>
    <path d="M39.7627 194.012H24.4564" stroke="#50505E" stroke-width="0.5" stroke-miterlimit="10"/>
    <path d="M39.3975 198.16H24.4567" stroke="#50505E" stroke-width="0.5" stroke-miterlimit="10"/>
    <path d="M39.0317 202.317H24.4566" stroke="#50505E" stroke-width="0.5" stroke-miterlimit="10"/>
    <path d="M38.666 206.464H24.4565" stroke="#50505E" stroke-width="0.5" stroke-miterlimit="10"/>
    <path d="M38.3003 210.621H24.4563" stroke="#50505E" stroke-width="0.5" stroke-miterlimit="10"/>
    <path d="M37.9351 214.768H24.4567" stroke="#50505E" stroke-width="0.5" stroke-miterlimit="10"/>
    <path d="M37.5791 218.925H24.4567" stroke="#50505E" stroke-width="0.5" stroke-miterlimit="10"/>
    <path d="M37.2134 223.073H24.4565" stroke="#50505E" stroke-width="0.5" stroke-miterlimit="10"/>
    <path d="M36.8477 227.23H24.4564" stroke="#50505E" stroke-width="0.5" stroke-miterlimit="10"/>
    <path d="M36.4819 231.377H24.4563" stroke="#50505E" stroke-width="0.5" stroke-miterlimit="10"/>
    <path d="M162.147 86.2433V82.0863H171.614V86.2433H174.635V70.0772H176.386V86.2433H179.214V59.7616H180.965V86.2433H185.833V234.221H148.842V86.2433H162.147Z" stroke="#50505E" stroke-width="0.5" stroke-miterlimit="10"/>
    <path d="M177.242 93.6528H153.066" stroke="#50505E" stroke-width="0.5" stroke-miterlimit="10"/>
    <path d="M176.751 99.157H153.066" stroke="#50505E" stroke-width="0.5" stroke-miterlimit="10"/>
    <path d="M176.271 104.671H153.066" stroke="#50505E" stroke-width="0.5" stroke-miterlimit="10"/>
    <path d="M175.79 110.185H153.066" stroke="#50505E" stroke-width="0.5" stroke-miterlimit="10"/>
    <path d="M175.309 115.689H153.066" stroke="#50505E" stroke-width="0.5" stroke-miterlimit="10"/>
    <path d="M174.818 121.203H153.066" stroke="#50505E" stroke-width="0.5" stroke-miterlimit="10"/>
    <path d="M174.337 126.707H153.066" stroke="#50505E" stroke-width="0.5" stroke-miterlimit="10"/>
    <path d="M173.855 132.221H153.066" stroke="#50505E" stroke-width="0.5" stroke-miterlimit="10"/>
    <path d="M173.375 137.734H153.066" stroke="#50505E" stroke-width="0.5" stroke-miterlimit="10"/>
    <path d="M172.884 143.239H153.066" stroke="#50505E" stroke-width="0.5" stroke-miterlimit="10"/>
    <path d="M172.403 148.752H153.066" stroke="#50505E" stroke-width="0.5" stroke-miterlimit="10"/>
    <path d="M171.922 154.266H153.066" stroke="#50505E" stroke-width="0.5" stroke-miterlimit="10"/>
    <path d="M171.441 159.771H153.066" stroke="#50505E" stroke-width="0.5" stroke-miterlimit="10"/>
    <path d="M170.95 165.284H153.066" stroke="#50505E" stroke-width="0.5" stroke-miterlimit="10"/>
    <path d="M170.469 170.789H153.066" stroke="#50505E" stroke-width="0.5" stroke-miterlimit="10"/>
    <path d="M169.988 176.302H153.066" stroke="#50505E" stroke-width="0.5" stroke-miterlimit="10"/>
    <path d="M169.507 181.816H153.066" stroke="#50505E" stroke-width="0.5" stroke-miterlimit="10"/>
    <path d="M169.017 187.32H153.066" stroke="#50505E" stroke-width="0.5" stroke-miterlimit="10"/>
    <path d="M168.536 192.834H153.066" stroke="#50505E" stroke-width="0.5" stroke-miterlimit="10"/>
    <path d="M168.055 198.348H153.066" stroke="#50505E" stroke-width="0.5" stroke-miterlimit="10"/>
    <path d="M167.574 203.852H153.066" stroke="#50505E" stroke-width="0.5" stroke-miterlimit="10"/>
    <path d="M167.083 209.366H153.066" stroke="#50505E" stroke-width="0.5" stroke-miterlimit="10"/>
    <path d="M218.11 249.467V224.398H224.411V180.095H233.608V126.419H249.213V93.2402H257.198V43H263.538V93.2402H268.81V153.632H276.65V196.5" stroke="#50505E" stroke-width="0.5" stroke-miterlimit="10"/>
    <path d="M238.534 234.194H224.478" stroke="#50505E" stroke-width="0.5" stroke-miterlimit="10"/>
    <path d="M238.534 239.265H224.478" stroke="#50505E" stroke-width="0.5" stroke-miterlimit="10"/>
    <path d="M238.534 244.336H224.478" stroke="#50505E" stroke-width="0.5" stroke-miterlimit="10"/>
    <path d="M238.534 249.398H224.478" stroke="#50505E" stroke-width="0.5" stroke-miterlimit="10"/>
    <path d="M243.007 183.857H228.952" stroke="#50505E" stroke-width="0.5" stroke-miterlimit="10"/>
    <path d="M243.007 188.919H228.952" stroke="#50505E" stroke-width="0.5" stroke-miterlimit="10"/>
    <path d="M243.007 193.99H228.952" stroke="#50505E" stroke-width="0.5" stroke-miterlimit="10"/>
    <path d="M243.007 199.061H228.952" stroke="#50505E" stroke-width="0.5" stroke-miterlimit="10"/>
    <path d="M243.007 204.132H228.952" stroke="#50505E" stroke-width="0.5" stroke-miterlimit="10"/>
    <path d="M243.007 209.194H228.952" stroke="#50505E" stroke-width="0.5" stroke-miterlimit="10"/>
    <path d="M250.04 130.576H235.975" stroke="#50505E" stroke-width="0.5" stroke-miterlimit="10"/>
    <path d="M250.04 135.647H235.975" stroke="#50505E" stroke-width="0.5" stroke-miterlimit="10"/>
    <path d="M250.04 140.709H235.975" stroke="#50505E" stroke-width="0.5" stroke-miterlimit="10"/>
    <path d="M250.04 145.78H235.975" stroke="#50505E" stroke-width="0.5" stroke-miterlimit="10"/>
    <path d="M250.04 150.851H235.975" stroke="#50505E" stroke-width="0.5" stroke-miterlimit="10"/>
    <path d="M250.04 155.923H235.975" stroke="#50505E" stroke-width="0.5" stroke-miterlimit="10"/>
    <path d="M250.04 160.984H235.975" stroke="#50505E" stroke-width="0.5" stroke-miterlimit="10"/>
    <path d="M266.308 95.8768H252.253" stroke="#50505E" stroke-width="0.5" stroke-miterlimit="10"/>
    <path d="M266.308 100.948H252.253" stroke="#50505E" stroke-width="0.5" stroke-miterlimit="10"/>
    <path d="M266.308 106.019H252.253" stroke="#50505E" stroke-width="0.5" stroke-miterlimit="10"/>
    <path d="M266.308 111.081H252.253" stroke="#50505E" stroke-width="0.5" stroke-miterlimit="10"/>
    <path d="M266.308 116.152H252.253" stroke="#50505E" stroke-width="0.5" stroke-miterlimit="10"/>
    <path d="M266.308 121.223H252.253" stroke="#50505E" stroke-width="0.5" stroke-miterlimit="10"/>
    <path d="M266.308 126.285H252.253" stroke="#50505E" stroke-width="0.5" stroke-miterlimit="10"/>
    <path d="M305.23 196.5V201.898H302.325V248.624H248.518V201.898H244.958V196.5H305.23Z" stroke="#50505E" stroke-width="0.5" stroke-miterlimit="10"/>
    <path d="M255.415 211.374H257.234C257.561 211.374 257.83 211.105 257.83 210.778V207.14C257.83 206.813 257.561 206.544 257.234 206.544H255.415C255.088 206.544 254.819 206.813 254.819 207.14V210.778C254.828 211.105 255.088 211.374 255.415 211.374Z" stroke="#50505E" stroke-width="0.5" stroke-miterlimit="10"/>
    <path d="M255.415 218.476H257.234C257.561 218.476 257.83 218.206 257.83 217.879V214.242C257.83 213.915 257.561 213.645 257.234 213.645H255.415C255.088 213.645 254.819 213.915 254.819 214.242V217.879C254.828 218.206 255.088 218.476 255.415 218.476Z" stroke="#50505E" stroke-width="0.5" stroke-miterlimit="10"/>
    <path d="M255.415 225.578H257.234C257.561 225.578 257.83 225.308 257.83 224.981V221.343C257.83 221.016 257.561 220.747 257.234 220.747H255.415C255.088 220.747 254.819 221.016 254.819 221.343V224.981C254.828 225.308 255.088 225.578 255.415 225.578Z" stroke="#50505E" stroke-width="0.5" stroke-miterlimit="10"/>
    <path d="M245.97 20.5056C246.028 20.1303 246.057 19.7551 246.057 19.3798C246.057 13.0095 238.139 7.84213 228.374 7.84213C226.142 7.84213 224.006 8.11157 222.044 8.61195C216.82 3.71399 208.123 0.5 198.281 0.5C185.197 0.5 174.143 6.16778 170.564 13.9429C170.16 13.9141 169.756 13.9044 169.343 13.9044C163.359 13.9044 158.414 16.772 157.5 20.5056H245.97Z" stroke="#50505E" stroke-width="0.5" stroke-miterlimit="10"/>
    <path d="M125.549 45.1427L135.926 41.2666L135.276 54.4258C135.24 55.1423 134.781 55.7659 134.11 56.0185L132.909 56.4669C132.682 56.5546 132.424 56.4618 132.295 56.2556L125.549 45.1427Z" fill="#202026" stroke="#CA3947" stroke-miterlimit="10" stroke-linecap="round" stroke-linejoin="round"/>
    <path fill-rule="evenodd" clip-rule="evenodd" d="M119.798 40.4735C111.271 43.6588 103.657 46.5023 101.455 47.3248L96.8147 43.9706C96.4434 43.7026 95.9637 43.6356 95.5305 43.7954L94.6847 44.1098C94.5041 44.1768 94.4422 44.3985 94.5609 44.5479L99.0633 50.4291L97.8307 50.8879C97.5522 50.9909 97.4078 51.3054 97.5109 51.5837C97.6141 51.862 97.9287 52.0064 98.2072 51.9033L102.434 50.326C104.503 50.4691 111.686 50.8021 117.857 48.4962C119.534 47.8699 121.386 47.1785 123.353 46.4438C132.331 43.0912 143.721 38.8376 151.953 35.7597C152.969 35.3783 155.357 33.6257 154.955 32.6206C154.357 31.1362 150.751 31.5228 150.751 31.5228C150.751 31.5228 148.503 29.7548 146.089 30.6517C142.843 31.8651 137.495 33.863 131.592 36.0682L109.115 23.183C108.759 22.9768 108.331 22.9459 107.944 23.0851L105.912 23.8427C105.624 23.951 105.531 24.317 105.737 24.5489L119.798 40.4735Z" fill="#202026"/>
    <path d="M101.455 47.3248L101.162 47.7301C101.298 47.828 101.474 47.8517 101.63 47.7932L101.455 47.3248ZM119.798 40.4735L119.973 40.9419C120.128 40.8843 120.244 40.7545 120.284 40.5948C120.323 40.4351 120.282 40.266 120.173 40.1426L119.798 40.4735ZM96.8147 43.9706L97.1076 43.5654L97.1073 43.5652L96.8147 43.9706ZM95.5305 43.7954L95.3575 43.3263L95.3563 43.3267L95.5305 43.7954ZM94.6847 44.1098L94.8587 44.5786L94.8589 44.5785L94.6847 44.1098ZM94.5609 44.5479L94.9579 44.2439L94.9525 44.2371L94.5609 44.5479ZM99.0633 50.4291L99.2377 50.8977C99.3863 50.8424 99.4999 50.7199 99.5438 50.5676C99.5877 50.4152 99.5567 50.2511 99.4604 50.1252L99.0633 50.4291ZM97.8307 50.8879L98.0043 51.3568L98.0051 51.3565L97.8307 50.8879ZM98.2072 51.9033L98.3808 52.3722L98.382 52.3717L98.2072 51.9033ZM102.434 50.326L102.468 49.8272C102.397 49.8223 102.326 49.8326 102.259 49.8576L102.434 50.326ZM117.857 48.4962L117.682 48.0278L117.682 48.0278L117.857 48.4962ZM123.353 46.4438L123.178 45.9754L123.353 46.4438ZM151.953 35.7597L152.128 36.228L152.129 36.2278L151.953 35.7597ZM154.955 32.6206L155.419 32.4348L155.419 32.4337L154.955 32.6206ZM150.751 31.5228L150.442 31.9158C150.545 31.9965 150.675 32.0338 150.805 32.0199L150.751 31.5228ZM146.089 30.6517L145.915 30.183L145.914 30.1833L146.089 30.6517ZM131.592 36.0682L131.343 36.502C131.472 36.576 131.627 36.5887 131.767 36.5366L131.592 36.0682ZM109.115 23.183L108.865 23.6156L108.867 23.6168L109.115 23.183ZM107.944 23.0851L107.775 22.6145L107.77 22.6166L107.944 23.0851ZM105.912 23.8427L105.738 23.3743L105.737 23.3745L105.912 23.8427ZM105.737 24.5489L106.112 24.218L106.111 24.2166L105.737 24.5489ZM101.63 47.7932C103.832 46.9707 111.446 44.1272 119.973 40.9419L119.624 40.0051C111.096 43.1904 103.483 46.0339 101.28 46.8564L101.63 47.7932ZM96.5218 44.3759L101.162 47.7301L101.748 46.9196L97.1076 43.5654L96.5218 44.3759ZM95.7035 44.2645C95.9802 44.1625 96.2853 44.2052 96.5221 44.3761L97.1073 43.5652C96.6014 43.2 95.9472 43.1088 95.3575 43.3263L95.7035 44.2645ZM94.8589 44.5785L95.7047 44.2641L95.3563 43.3267L94.5104 43.6411L94.8589 44.5785ZM94.9525 44.2371C95.0467 44.3558 94.9946 44.5281 94.8587 44.5786L94.5106 43.6411C94.0137 43.8256 93.8378 44.4411 94.1692 44.8587L94.9525 44.2371ZM99.4604 50.1252L94.9579 44.244L94.1639 44.8519L98.6663 50.7331L99.4604 50.1252ZM98.0051 51.3565L99.2377 50.8977L98.8889 49.9605L97.6563 50.4193L98.0051 51.3565ZM97.9798 51.41C97.9768 51.402 97.9763 51.3914 97.982 51.3788C97.9878 51.3662 97.9963 51.3597 98.0043 51.3568L97.6571 50.4189C97.1196 50.6179 96.843 51.2201 97.0421 51.7575L97.9798 51.41ZM98.0336 51.4344C98.0255 51.4374 98.0146 51.4379 98.0019 51.4321C97.9891 51.4263 97.9827 51.4178 97.9798 51.41L97.0421 51.7575C97.2413 52.2951 97.8438 52.571 98.3808 52.3722L98.0336 51.4344ZM102.259 49.8576L98.0324 51.4348L98.382 52.3717L102.608 50.7945L102.259 49.8576ZM117.682 48.0278C111.618 50.2935 104.529 49.9697 102.468 49.8272L102.399 50.8248C104.477 50.9685 111.753 51.3107 118.032 48.9646L117.682 48.0278ZM123.178 45.9754C121.211 46.7101 119.359 47.4015 117.682 48.0278L118.032 48.9646C119.709 48.3383 121.561 47.6469 123.528 46.9122L123.178 45.9754ZM151.778 35.2913C143.546 38.3692 132.156 42.6228 123.178 45.9754L123.528 46.9122C132.505 43.5596 143.896 39.306 152.128 36.228L151.778 35.2913ZM154.491 32.8064C154.505 32.8413 154.523 32.9633 154.367 33.2281C154.22 33.4785 153.968 33.7647 153.65 34.0538C153.008 34.636 152.21 35.1291 151.777 35.2916L152.129 36.2278C152.712 36.0089 153.616 35.435 154.322 34.7943C154.677 34.4719 155.01 34.1077 155.229 33.7349C155.44 33.3765 155.606 32.9026 155.419 32.4348L154.491 32.8064ZM150.751 31.5228C150.805 32.0199 150.805 32.0199 150.805 32.0199C150.805 32.0199 150.805 32.0199 150.805 32.0199C150.805 32.0199 150.805 32.0199 150.805 32.0199C150.805 32.0199 150.805 32.0199 150.806 32.0198C150.807 32.0197 150.809 32.0195 150.812 32.0192C150.817 32.0186 150.826 32.0177 150.838 32.0166C150.862 32.0144 150.899 32.0112 150.946 32.0076C151.04 32.0003 151.177 31.9914 151.343 31.9852C151.677 31.9726 152.123 31.9711 152.583 32.013C153.048 32.0553 153.5 32.1398 153.856 32.2857C154.218 32.4333 154.413 32.614 154.491 32.8075L155.419 32.4337C155.197 31.885 154.718 31.5574 154.235 31.36C153.747 31.1608 153.185 31.0636 152.674 31.0171C152.158 30.9701 151.666 30.9723 151.305 30.9859C151.124 30.9927 150.975 31.0024 150.869 31.0105C150.817 31.0146 150.775 31.0182 150.746 31.0209C150.731 31.0223 150.72 31.0234 150.712 31.0242C150.708 31.0246 150.705 31.0249 150.702 31.0252C150.701 31.0253 150.7 31.0254 150.7 31.0254C150.699 31.0255 150.699 31.0255 150.699 31.0255C150.699 31.0256 150.698 31.0256 150.698 31.0256C150.698 31.0256 150.698 31.0256 150.751 31.5228ZM146.263 31.1203C147.315 30.7294 148.348 30.9128 149.147 31.218C149.544 31.3696 149.873 31.5476 150.102 31.6873C150.216 31.7569 150.304 31.8164 150.362 31.8574C150.391 31.8779 150.413 31.8937 150.427 31.9038C150.433 31.9089 150.438 31.9125 150.441 31.9145C150.442 31.9156 150.443 31.9162 150.443 31.9164C150.443 31.9165 150.443 31.9165 150.443 31.9164C150.443 31.9164 150.443 31.9163 150.443 31.9162C150.443 31.9161 150.443 31.9161 150.443 31.916C150.443 31.9159 150.442 31.9158 150.751 31.5228C151.061 31.1297 151.06 31.1296 151.06 31.1294C151.06 31.1294 151.06 31.1293 151.06 31.1291C151.06 31.1289 151.059 31.1287 151.059 31.1284C151.058 31.1279 151.057 31.1273 151.056 31.1265C151.055 31.1251 151.052 31.1232 151.049 31.1209C151.043 31.1163 151.035 31.1101 151.025 31.1024C151.004 31.087 150.975 31.0657 150.938 31.0397C150.864 30.9875 150.757 30.9159 150.623 30.8338C150.355 30.67 149.971 30.462 149.504 30.2838C148.575 29.9292 147.277 29.677 145.915 30.183L146.263 31.1203ZM131.767 36.5366C137.67 34.3314 143.018 32.3335 146.264 31.12L145.914 30.1833C142.668 31.3967 137.32 33.3946 131.417 35.5999L131.767 36.5366ZM131.84 35.6345L109.364 22.7492L108.867 23.6168L131.343 36.502L131.84 35.6345ZM109.366 22.7503C108.877 22.4668 108.294 22.4279 107.775 22.6146L108.114 23.5555C108.368 23.4639 108.642 23.4868 108.865 23.6156L109.366 22.7503ZM107.77 22.6166L105.738 23.3743L106.087 24.3112L108.119 23.5535L107.77 22.6166ZM105.737 23.3745C105.122 23.605 104.922 24.3847 105.363 24.8812L106.111 24.2166C106.116 24.2225 106.121 24.2322 106.124 24.2438C106.127 24.2543 106.126 24.2634 106.124 24.2708C106.12 24.2857 106.107 24.3036 106.088 24.3109L105.737 23.3745ZM105.362 24.8798L119.424 40.8045L120.173 40.1426L106.112 24.218L105.362 24.8798Z" fill="#CA3947"/>
    <path d="M8.55566 185.889V201.147C8.55566 201.147 17.8465 193.521 16.7023 191.356C15.5581 189.197 8.55566 185.889 8.55566 185.889Z" fill="#202026" stroke="#CA3947" stroke-miterlimit="10"/>
    <path d="M118.998 189.507C118.998 189.507 115.382 187.251 98.8959 181.834C82.4094 176.418 71.7964 174.614 55.5337 175.067C39.2709 175.519 17.3635 181.611 13.3003 183.191C9.2372 184.771 7.42684 185.223 8.33202 186.351C9.2372 187.479 14.2055 191.539 13.5241 193.348C12.8478 195.152 1.78216 205.08 1.10074 206.66C0.424393 208.24 3.3586 213.656 3.81119 215.008C4.26379 216.36 6.74541 216.812 8.77952 217.04C10.8136 217.264 155.353 217.04 155.353 217.04C155.353 217.04 157.387 214.556 156.934 211.401C156.482 208.24 155.999 204.074 153.965 201.406C152.317 199.247 150.613 196.96 146.321 196.508C143.626 196.219 119.674 189.735 118.998 189.507Z" fill="#202026" stroke="#CA3947" stroke-miterlimit="10"/>
    <path d="M33.5854 181.184L42.622 190.721H109.046V188.562C109.046 188.562 95.4276 183.222 81.0515 180.422C66.6703 177.622 63.1106 177.881 56.6167 178.008C50.1279 178.13 33.5854 181.184 33.5854 181.184Z" fill="#202026" stroke="#CA3947" stroke-miterlimit="10"/>
    <path d="M63.6191 191.991V212.717" stroke="#CA3947" stroke-miterlimit="10"/>
    <path d="M31.8765 228.521C39.1975 226.822 43.7541 219.515 42.0541 212.201C40.3541 204.886 33.0411 200.333 25.7201 202.032C18.3992 203.73 13.8425 211.037 15.5425 218.352C17.2426 225.667 24.5555 230.219 31.8765 228.521Z" fill="#202026" stroke="#CA3947" stroke-miterlimit="10"/>
    <path d="M28.8002 205.461C23.3792 205.461 18.9805 209.856 18.9805 215.272C18.9805 220.688 23.3792 225.083 28.8002 225.083C34.2211 225.083 38.6199 220.688 38.6199 215.272C38.6199 209.856 34.2262 205.461 28.8002 205.461ZM35.3958 213.306L29.6748 214.378L31.297 208.865C33.265 209.632 34.7906 211.273 35.3958 213.306ZM29.2934 214.779V215.765H28.3069V214.779H29.2934ZM26.8322 208.682L27.9051 214.398L22.3876 212.777C23.1555 210.811 24.798 209.287 26.8322 208.682ZM22.2045 217.238L27.9255 216.166L26.3033 221.679C24.3353 220.917 22.8097 219.276 22.2045 217.238ZM30.7682 221.862L29.6952 216.146L35.2127 217.767C34.4499 219.733 32.8074 221.257 30.7682 221.862Z" fill="#202026" stroke="#CA3947" stroke-miterlimit="10"/>
    <path d="M31.8461 215.272C31.8461 213.59 30.4832 212.229 28.8 212.229C27.1168 212.229 25.7539 213.59 25.7539 215.272C25.7539 216.954 27.1168 218.315 28.8 218.315C30.4832 218.315 31.8461 216.954 31.8461 215.272Z" fill="#202026" stroke="#CA3947" stroke-miterlimit="10"/>
    <path d="M134.181 224.886C139.495 219.576 139.495 210.967 134.181 205.658C128.867 200.348 120.251 200.348 114.936 205.658C109.622 210.967 109.622 219.576 114.936 224.886C120.251 230.196 128.867 230.196 134.181 224.886Z" fill="#202026" stroke="#CA3947" stroke-miterlimit="10"/>
    <path d="M124.561 205.461C119.14 205.461 114.742 209.856 114.742 215.272C114.742 220.689 119.14 225.084 124.561 225.084C129.982 225.084 134.381 220.689 134.381 215.272C134.381 209.856 129.982 205.461 124.561 205.461ZM131.157 213.306L125.436 214.378L127.058 208.865C129.026 209.632 130.552 211.274 131.157 213.306ZM125.055 214.779V215.765H124.068V214.779H125.055ZM122.593 208.682L123.666 214.398L118.149 212.777C118.912 210.811 120.554 209.287 122.593 208.682ZM117.961 217.239L123.682 216.166L122.059 221.679C120.097 220.917 118.571 219.276 117.961 217.239ZM126.524 221.862L125.451 216.146L130.969 217.767C130.206 219.733 128.564 221.258 126.524 221.862Z" fill="#202026" stroke="#CA3947" stroke-miterlimit="10"/>
    <path d="M127.602 215.272C127.602 213.59 126.24 212.229 124.556 212.229C122.873 212.229 121.51 213.59 121.51 215.272C121.51 216.954 122.873 218.316 124.556 218.316C126.24 218.316 127.602 216.954 127.602 215.272Z" fill="#202026" stroke="#CA3947" stroke-miterlimit="10"/>
    <path d="M153.964 201.401C153.964 201.401 143.84 200.883 143.387 201.401C142.934 201.92 146.774 205.979 148.132 206.884C149.205 207.6 154.259 207.463 156.304 207.377C155.866 205.207 155.205 203.027 153.964 201.401Z" fill="#202026" stroke="#CA3947" stroke-miterlimit="10"/>
    <path d="M65.2822 178.075C64.6161 178.029 63.9906 177.998 63.3803 177.978L61.6768 190.68H66.1925L65.2822 178.075Z" fill="#202026" stroke="#CA3947" stroke-miterlimit="10"/>
    <path d="M197.064 121.307C197.064 121.307 199.322 122.036 198.667 124.364C198.013 126.691 196.41 126.621 196.41 126.621V121.093L197.064 121.307Z" fill="#202026" stroke="#CA3947" stroke-miterlimit="10"/>
    <path d="M171.18 226.936C171.18 226.936 174.576 230.721 176.029 231.4C177.483 232.08 178.357 232.179 178.262 233.148C178.167 234.117 174.671 234.312 173.218 234.312C171.764 234.312 169.822 232.854 168.463 232.759C167.105 232.659 163.999 233.243 162.835 232.564C161.672 231.885 161.961 230.332 162.451 228.973C162.935 227.615 164.588 224.703 164.588 224.703C164.588 224.703 167.495 227.81 171.18 226.936Z" fill="#202026" stroke="#CA3947" stroke-miterlimit="10"/>
    <path d="M178.262 233.143C178.272 233.043 178.267 232.954 178.257 232.874C175.62 234.487 172.274 232.809 170.401 232.269C168.364 231.685 167.2 232.174 165.068 232.269C163.595 232.334 162.541 231.48 162.026 230.941C162.021 231.615 162.231 232.204 162.835 232.559C163.999 233.238 167.105 232.654 168.464 232.754C169.822 232.849 171.76 234.307 173.218 234.307C174.671 234.307 178.167 234.112 178.262 233.143Z" fill="#202026" stroke="#CA3947" stroke-miterlimit="10"/>
    <path d="M175.72 187.783C175.72 187.783 175.915 193.601 174.556 196.707C173.198 199.813 168.349 206.6 167.864 210.965C167.38 215.33 164.973 222.666 164.683 224.024C164.394 225.383 163.809 225.383 164.394 225.962C164.978 226.546 166.626 227.415 167.884 227.515C169.148 227.61 171.765 227.905 171.765 227.61C171.765 227.32 171.86 226.446 171.86 226.057C171.86 225.667 172.054 224.214 172.249 223.824C172.444 223.435 176.499 211.155 178.731 206.98C180.964 202.81 184.549 198.25 184.939 198.055C185.329 197.86 177.568 187.093 177.568 187.093C177.568 187.093 176.304 186.324 175.72 187.783Z" fill="#202026" stroke="#CA3947" stroke-miterlimit="10"/>
    <path d="M194.348 231.046C194.348 231.046 195.996 234.052 196.385 234.442C196.775 234.831 200.071 233.178 202.693 231.241C205.31 229.298 209 224.064 209 222.411C209 220.763 207.062 220.958 206.283 221.342C205.509 221.732 203.177 222.896 201.629 223.475C200.081 224.054 199.496 224.249 199.496 224.249L194.348 231.046Z" fill="#202026" stroke="#CA3947" stroke-miterlimit="10"/>
    <path d="M208.99 222.351C208.251 223.595 206.863 225.677 204.531 228.134C201.245 231.6 196.74 233.598 196.006 233.912C196.171 234.167 196.306 234.362 196.385 234.442C196.775 234.831 200.071 233.178 202.693 231.241C205.31 229.298 209 224.064 209 222.411C208.995 222.391 208.99 222.376 208.99 222.351Z" fill="#202026" stroke="#CA3947" stroke-miterlimit="10"/>
    <path d="M169.902 167.891C169.997 168.181 169.417 176.621 171.355 181.375C173.293 186.13 179.311 196.607 180.764 199.029C182.217 201.456 182.317 201.356 183.091 203.004C183.865 204.652 185.808 211.349 187.261 215.519C188.714 219.689 189.878 223.28 190.657 224.928C191.431 226.576 192.11 228.324 192.11 228.808C192.11 229.293 192.11 229.777 192.595 230.262C193.079 230.746 194.243 231.815 194.532 231.815C194.822 231.815 198.023 229.198 198.702 228.224C199.381 227.255 200.545 224.439 200.545 224.439C200.545 224.439 199.092 222.691 198.413 221.432C197.733 220.169 197.344 221.432 196.28 216.873C195.211 212.313 191.626 199.993 190.557 196.597C189.488 193.201 187.066 188.447 187.066 188.447C187.066 188.447 188.714 181.27 189.393 176.321C190.073 171.372 190.073 168.656 190.073 168.656C190.073 168.656 184.929 169.24 179.016 168.656C173.103 168.071 169.902 167.891 169.902 167.891Z" fill="#202026" stroke="#CA3947" stroke-miterlimit="10"/>
    <path d="M180.669 170.414C180.669 170.414 183.675 170.948 186.002 170.608C188.329 170.269 190.272 169.639 190.272 169.639C190.272 169.639 190.077 163.916 190.077 158.193C190.077 152.47 190.367 147.621 190.367 146.068C190.367 144.515 189.593 140.15 188.524 138.017C187.456 135.885 184.159 136.269 180.858 136.269C177.562 136.269 171.934 138.697 170.381 140.15C168.828 141.603 167.569 157.709 167.569 161.684C167.569 165.659 169.217 168.376 170.481 169.155C171.744 169.929 180.669 170.414 180.669 170.414Z" fill="#202026" stroke="#CA3947" stroke-miterlimit="10"/>
    <path d="M190.298 146.917C190.298 146.917 192.555 154.193 193.424 156.086C194.298 157.978 194.518 161.544 194.078 163.507C193.644 165.469 192.475 167.802 192.475 167.802L189.563 160.6L189.998 154.632L189.853 147.211C189.858 147.206 190.008 146.772 190.298 146.917Z" fill="#202026" stroke="#CA3947" stroke-miterlimit="10"/>
    <path d="M190.298 159.721C190.298 159.721 191.606 158.048 192.261 157.539" stroke="#CA3947" stroke-miterlimit="10"/>
    <path d="M184.549 145.608C184.549 145.608 185.493 148.08 186.077 156.011C186.662 163.941 187.915 170.628 187.116 171.722C186.317 172.816 184.285 174.169 184.285 175.188C184.285 176.207 183.45 176.157 183.011 176.227C182.577 176.301 182.292 176.451 176.254 174.923C170.216 173.395 168.833 173.03 168.833 173.03C168.833 173.03 168.908 171.282 168.613 171.282C168.324 171.282 166.865 171.063 166.94 169.245C167.015 167.427 167.595 157.094 167.814 150.617C168.034 144.14 168.758 140.285 171.16 138.612C173.562 136.939 176.034 136.574 178.217 136.14C180.404 135.71 184.549 145.608 184.549 145.608Z" fill="#202026" stroke="#CA3947" stroke-miterlimit="10"/>
    <path d="M183.011 176.226C183.446 176.152 184.285 176.206 184.285 175.188C184.285 175.008 184.349 174.818 184.454 174.623C183.266 174.608 181.373 174.499 179.081 174.029C175.38 173.28 168.613 171.287 168.613 171.287C168.903 171.287 168.833 173.035 168.833 173.035C168.833 173.035 170.216 173.4 176.254 174.928C182.292 176.456 182.577 176.301 183.011 176.226Z" fill="#202026" stroke="#CA3947" stroke-miterlimit="10"/>
    <path d="M180.619 168.381C180.619 168.381 180.544 165.255 179.89 162.997" stroke="#CA3947" stroke-miterlimit="10"/>
    <path d="M189.204 146.407C189.204 146.407 189.569 150.702 189.569 154.338C189.569 157.973 188.33 168.96 188.33 170.274C188.33 171.582 189.639 175.732 189.639 175.732C189.639 175.732 191.531 175.078 191.601 174.788C191.676 174.499 191.092 173.115 191.092 173.115C191.092 173.115 191.456 172.681 191.456 172.171C191.456 171.662 191.456 171.662 191.456 171.662C191.456 171.662 193.204 169.914 193.204 169.48C193.204 169.045 192.475 165.844 191.676 163.587C190.877 161.329 190.368 160.166 190.293 159.731C190.218 159.297 190.582 153.109 190.368 150.637C190.148 148.165 190.877 147.361 190.877 145.473C190.877 143.581 191.606 141.838 190.512 139.87C189.419 137.907 189.274 140.669 189.274 141.977C189.279 143.276 189.204 146.407 189.204 146.407Z" fill="#202026" stroke="#CA3947" stroke-miterlimit="10"/>
    <path d="M189.644 175.727C189.644 175.727 191.536 175.073 191.606 174.783C191.681 174.494 191.097 173.11 191.097 173.11C190.288 173.55 189.574 173.715 189.064 173.764C189.364 174.843 189.644 175.727 189.644 175.727Z" fill="#202026" stroke="#CA3947" stroke-miterlimit="10"/>
    <path d="M182.876 132.144C182.876 132.144 181.932 131.56 181.203 132.219C180.474 132.873 179.675 133.383 178.437 133.892C177.198 134.402 173.707 135.201 173.343 136.075C172.978 136.949 173.777 139.131 174.796 139.71C175.815 140.295 179.6 141.603 181.053 142.327C182.507 143.056 184.759 146.407 184.759 146.407C184.759 146.407 183.311 139.855 183.311 138.107C183.311 136.359 184.329 134.981 185.858 135.925C187.386 136.869 188.04 139.346 188.474 141.673C188.909 144 189.274 147.251 189.274 147.251C189.274 147.251 191.456 144.44 191.166 141.094C190.877 137.748 188.185 134.691 186.582 133.308C184.984 131.93 182.876 132.144 182.876 132.144Z" fill="#202026" stroke="#CA3947" stroke-miterlimit="10"/>
    <path d="M183.75 127.565C183.75 127.565 182.512 132.948 182.002 134.187C181.493 135.425 182.147 136.589 183.021 139.79C183.895 142.991 185.638 145.828 186.512 144.884C187.386 143.94 186.657 142.267 187.531 140.01C188.405 137.752 189.933 135.79 189.933 135.79L183.75 127.565Z" fill="#202026" stroke="#CA3947" stroke-miterlimit="10"/>
    <path d="M183.676 121.887C183.676 121.887 183.241 126.251 183.386 128.579C183.531 130.906 183.97 132.799 186.512 135.71C189.059 138.622 189.639 138.766 191.676 137.603C193.714 136.439 195.676 131.785 196.186 129.383C196.695 126.981 197.424 125.018 197.204 122.036C196.985 119.055 195.312 118.106 192.91 117.232C190.507 116.358 188.325 116.648 186.362 118.176C184.405 119.704 183.676 121.887 183.676 121.887Z" fill="#202026" stroke="#CA3947" stroke-miterlimit="10"/>
    <path d="M183.965 126.107C183.965 126.107 183.82 125.817 185.348 125.307C186.876 124.798 188.04 124.508 187.675 123.27C187.311 122.031 186.292 122.176 187.675 121.742C189.059 121.307 191.606 122.616 190.512 123.05C189.418 123.485 187.965 123.849 189.274 124.289C190.582 124.723 194.367 124.069 196.405 122.761C198.443 121.452 198.662 119.559 196.914 117.742C195.166 115.924 191.021 114.685 187.531 116.138C184.04 117.592 183.021 120.358 183.021 121.742C183.021 123.125 183.386 124.868 183.386 124.868C183.386 124.868 183.241 126.107 183.965 126.107Z" fill="#202026" stroke="#CA3947" stroke-miterlimit="10"/>
    <path d="M184.474 126.836C184.474 126.836 183.89 124.069 183.311 123.854C182.726 123.635 181.927 125.672 182.217 127.42C182.507 129.168 183.161 129.747 183.82 128.803" fill="#202026"/>
    <path d="M184.474 126.836C184.474 126.836 183.89 124.069 183.311 123.854C182.726 123.635 181.927 125.672 182.217 127.42C182.507 129.168 183.161 129.747 183.82 128.803" stroke="#CA3947" stroke-miterlimit="10"/>
    <path d="M178.656 167.287C178.656 167.287 179.091 167.796 179.53 167.941C179.965 168.086 180.624 168.376 180.624 168.376C180.624 168.376 180.334 170.413 179.68 171.142C179.026 171.872 178.661 172.086 178.661 172.086C178.661 172.086 177.568 170.558 176.913 170.338C176.254 170.124 178.656 167.287 178.656 167.287Z" fill="#202026" stroke="#CA3947" stroke-miterlimit="10"/>
    <path d="M177.563 166.198C177.563 166.198 179.236 167.142 178.871 167.871C178.507 168.6 177.268 170.129 176.909 170.343C176.544 170.563 175.67 170.268 175.305 169.909C174.941 169.544 174.941 169.544 174.941 169.544L177.563 166.198Z" fill="#202026" stroke="#CA3947" stroke-miterlimit="10"/>
    <path d="M172.764 150.697C172.764 150.697 175.021 150.043 176.474 147.496" stroke="#CA3947" stroke-miterlimit="10"/>
    <path d="M173.053 137.678C173.053 137.678 171.016 137.897 169.343 139.281C167.67 140.664 165.267 147.501 163.959 149.683C162.651 151.866 158.575 157.903 158.501 159.212C158.426 160.52 166.651 165.25 169.412 167.362C170.846 168.456 172.399 169.699 174.137 170.269C174.981 170.543 175.595 170.423 176.109 169.689C176.829 168.665 178.726 166.743 177.777 165.834C175.885 164.016 169.118 158.193 168.973 157.978C168.828 157.759 168.828 157.759 168.828 157.759L168.538 156.45C168.538 156.45 173.922 150.337 175.23 146.262" fill="#202026"/>
    <path d="M173.053 137.678C173.053 137.678 171.016 137.897 169.343 139.281C167.67 140.664 165.267 147.501 163.959 149.683C162.651 151.866 158.575 157.903 158.501 159.212C158.426 160.52 166.651 165.25 169.412 167.362C170.846 168.456 172.399 169.699 174.137 170.269C174.981 170.543 175.595 170.423 176.109 169.689C176.829 168.665 178.726 166.743 177.777 165.834C175.885 164.016 169.118 158.193 168.973 157.978C168.828 157.759 168.828 157.759 168.828 157.759L168.538 156.45C168.538 156.45 173.922 150.337 175.23 146.262" stroke="#CA3947" stroke-miterlimit="10"/>
    <path d="M186.877 188.167C186.877 188.167 184.355 182.154 183.965 180.891L182.702 177.205" stroke="#CA3947" stroke-miterlimit="10"/>
    <path d="M109.855 228.358C109.855 228.358 108.682 233.477 109.319 234.129C109.638 234.458 110.666 234.685 112.839 234.197C114.452 233.839 116.026 234.588 117.638 234.491C118.242 234.458 121.308 234.1 121.057 233.101C120.878 232.376 118.3 231.516 116.523 230.85C114.746 230.179 114.09 229.401 113.978 229.285C113.867 229.169 113.843 228.141 113.843 228.141L109.855 228.358Z" fill="#202026" stroke="#CA3947" stroke-miterlimit="10"/>
    <path d="M109.314 226.185L109.739 228.701C109.739 228.701 110.647 229.092 111.864 228.957C113.08 228.822 113.843 228.604 113.843 228.604L114.075 225.605L109.169 225.576L109.314 226.185Z" fill="#202026" stroke="#CA3947" stroke-miterlimit="10"/>
    <path d="M108.141 220.047C108.141 220.047 108.073 225.219 108.29 225.827C108.512 226.441 109.155 226.716 111.052 226.74C112.955 226.764 115.069 227.556 115.166 226.185C115.263 224.818 114.611 216.594 114.471 215.681C114.331 214.768 114.514 212.561 113.389 211.33C112.264 210.098 107.745 212.547 107.262 214.594C106.779 216.642 108.141 220.047 108.141 220.047Z" fill="#202026" stroke="#CA3947" stroke-miterlimit="10"/>
    <path d="M98.9084 223.084C98.9084 223.084 94.5 225.934 94.5 226.847C94.5 227.759 99.4443 231.739 100.845 232.603C102.245 233.463 104.017 234.057 104.393 233.41C104.77 232.763 102.834 230.667 102.028 228.947C101.221 227.228 101.221 226.798 101.221 226.634C101.221 226.475 101.921 225.721 101.921 225.721L98.9084 223.084Z" fill="#202026" stroke="#CA3947" stroke-miterlimit="10"/>
    <path d="M100.038 221.148L98.585 223.244C98.585 223.244 98.9616 224.157 99.9273 224.91C100.893 225.663 101.593 226.04 101.593 226.04L103.853 224.05L100.357 220.607L100.038 221.148Z" fill="#202026" stroke="#CA3947" stroke-miterlimit="10"/>
    <path d="M103.476 215.932C103.476 215.932 99.8208 219.588 99.5504 220.182C99.28 220.771 99.5504 221.418 100.893 222.766C102.235 224.108 103.206 226.156 104.224 225.238C105.248 224.326 110.516 217.98 111.052 217.226C111.588 216.473 113.258 215.019 113.311 213.353C113.365 211.687 108.42 210.287 106.643 211.417C104.876 212.542 103.476 215.932 103.476 215.932Z" fill="#202026" stroke="#CA3947" stroke-miterlimit="10"/>
    <path d="M121.365 186.154C121.365 186.154 122.708 196.856 123.678 203.255C124.644 209.654 127.068 214.174 127.068 214.174C127.068 214.174 123.736 215.198 122.23 215.41C120.723 215.628 120.294 215.628 120.294 215.628C120.294 215.628 119.864 205.303 119.864 198.257C119.859 191.211 121.365 186.154 121.365 186.154Z" fill="#202026" stroke="#CA3947" stroke-miterlimit="10"/>
    <path d="M121.201 162.06C121.201 162.06 120.124 162.973 119.748 163.944C119.371 164.91 119.424 165.451 119.265 165.451C119.106 165.451 114.91 162.978 114.91 162.978C114.91 162.978 117.546 158.781 117.652 158.622C117.763 158.458 121.201 162.06 121.201 162.06Z" fill="#202026" stroke="#CA3947" stroke-miterlimit="10"/>
    <path d="M116.31 162.331C116.31 162.331 119.912 165.774 121.954 169.16C123.997 172.55 126.203 177.278 126.363 177.442C126.522 177.601 123.567 178.302 123.567 178.302L125.986 180.992C125.986 180.992 123.726 184.271 123.19 185.507C122.654 186.743 122.007 187.444 122.007 187.444C122.007 187.444 122.114 197.069 122.114 202.931C122.114 208.794 123.026 215.623 123.026 215.623C123.026 215.623 121.95 217.024 116.035 217.56C110.12 218.096 104.152 216.753 102.592 216.323C101.033 215.894 100.173 215.734 100.173 215.734C100.173 215.734 101.945 203.632 103.022 194.49C104.099 185.348 108.131 171.956 108.56 168.947C108.99 165.934 110.82 162.761 112.38 161.954C113.944 161.148 116.31 162.331 116.31 162.331Z" fill="#202026" stroke="#CA3947" stroke-miterlimit="10"/>
    <path d="M115.397 164.591C115.397 164.591 120.506 172.067 121.259 179.755" stroke="#CA3947" stroke-miterlimit="10"/>
    <path d="M122.172 202.183C122.172 202.183 121.259 210.465 121.095 213.044C120.936 215.628 120.342 217.883 120.342 217.883C120.342 217.883 121.042 217.777 121.742 217.506C122.442 217.236 123.461 216.7 123.461 216.7C123.461 216.7 122.119 206.751 122.172 202.183Z" fill="#202026" stroke="#CA3947" stroke-miterlimit="10"/>
    <path d="M126.363 153.513C126.363 153.513 126.469 155.285 126.146 156.096C125.822 156.903 125.392 157.497 125.499 157.927C125.605 158.356 125.928 159.269 125.822 159.593C125.716 159.916 124.798 160.293 124.798 160.293C124.798 160.293 123.345 162.336 122.915 162.766C121.641 164.041 117.942 161.259 117.594 159.969C117.435 159.38 117.812 155.237 120.12 153.194C122.437 151.146 126.363 153.513 126.363 153.513Z" fill="#202026" stroke="#CA3947" stroke-miterlimit="10"/>
    <path d="M128.193 152.542C128.193 152.542 122.331 157.434 120.395 158.352C118.459 159.264 117.87 160.394 116.793 163.084C115.716 165.774 115.827 171.149 113.191 172.82C110.555 174.486 106.953 174.433 104.051 171.637C101.149 168.841 102.762 163.302 105.664 161.471C108.565 159.641 112.597 157.709 113.085 155.396C113.568 153.083 114.751 149.374 118.517 148.62C122.278 147.867 125.561 150.88 127.121 151.31C128.676 151.735 128.729 152.006 128.193 152.542Z" fill="#202026" stroke="#CA3947" stroke-miterlimit="10"/>
    <path d="M100.878 180.238C100.878 180.238 109.965 177.978 112.008 178.142C114.05 178.302 122.171 180.832 122.171 180.832L121.148 185.836C121.148 185.836 123.19 195.354 122.548 196.001C121.901 196.648 114.32 197.185 108.246 196.914C102.172 196.644 100.183 196.914 100.072 195.572C99.9655 194.229 101.472 186.642 101.472 186.642L100.878 180.238Z" fill="#202026" stroke="#CA3947" stroke-miterlimit="10"/>
    <path d="M104.379 180.605C104.447 180.127 106.03 168.899 108.174 166.151C110.501 163.166 113.2 165.079 113.229 165.098L113.273 165.132C113.384 165.238 116.02 167.725 116.957 169.372C117.884 171.014 118.985 179.485 119.106 180.446" stroke="#CA3947" stroke-miterlimit="10"/>
    <path d="M101.472 186.637L102.544 182.605" stroke="#CA3947" stroke-miterlimit="10"/>
    <path d="M121.148 185.831L120.559 183.252" stroke="#CA3947" stroke-miterlimit="10"/>
    <path d="M116.469 173.733C116.469 173.733 115.446 170.56 115.557 170.183C115.663 169.807 116.469 168.783 116.846 168.624C117.223 168.464 119.482 169.271 119.695 169.377C119.912 169.483 120.018 170.024 120.071 170.343C120.124 170.666 120.448 171.202 120.289 171.526C120.129 171.85 119.588 171.796 119.588 171.796C119.588 171.796 119.588 173.786 119.318 174.11C119.048 174.433 118.724 174.916 118.724 174.916L116.469 173.733Z" fill="#202026" stroke="#CA3947" stroke-miterlimit="10"/>
    <path d="M114.32 176.312L116.469 173.356L118.888 174.54C118.888 174.54 118.299 175.776 117.546 177.23C116.792 178.683 116.363 179.543 116.363 179.543L114.32 176.312Z" fill="#202026" stroke="#CA3947" stroke-miterlimit="10"/>
    <path d="M113.674 176.476C113.674 176.476 114.374 169.271 113.997 167.175C113.62 165.079 111.148 164.055 109.482 165.562C107.817 167.068 107.71 170.565 107.71 172.984C107.71 175.404 108.357 183.416 108.676 185.517C109 187.613 110.395 187.613 110.989 187.023C111.578 186.434 117.44 179.335 117.44 179.335L114.374 175.892L113.674 176.476Z" fill="#202026" stroke="#CA3947" stroke-miterlimit="10"/>
    <path d="M113.674 176.476L109.749 180.402" stroke="#CA3947" stroke-miterlimit="10"/>
    <path d="M119.588 171.797V171.043" stroke="#CA3947" stroke-miterlimit="10"/>
</svg>
