<svg width="554" height="473" viewBox="0 0 554 473" fill="none" xmlns="http://www.w3.org/2000/svg">
    <path d="M142.872 356.5V266.963H114.337V258.649H94.0186V266.963H87.5536V234.631H83.8016V266.963H77.7407V214H73.9887V266.963H63.5601V356.5" stroke="#50505E" stroke-miterlimit="10"/>
    <path d="M247.543 354.556L233.189 281.827H225.916L218.104 242.297H187.973L180.161 281.827H172.907L158.534 354.556H157.168V434.136H194.707V361.407V354.556V327.978C194.707 323.378 198.421 319.645 203.039 319.645C207.637 319.645 211.37 323.397 211.37 327.978V354.556V361.407V434.136H248.89V354.556H247.543Z" stroke="#50505E" stroke-miterlimit="10"/>
    <path d="M174.889 359.059H165.884V368.066H174.889V359.059Z" stroke="#50505E" stroke-miterlimit="10"/>
    <path d="M185.51 334.079H176.505V343.085H185.51V334.079Z" stroke="#50505E" stroke-miterlimit="10"/>
    <path d="M186.645 380.652H177.641V389.659H186.645V380.652Z" stroke="#50505E" stroke-miterlimit="10"/>
    <path d="M244.83 383.693H235.825V392.7H244.83V383.693Z" stroke="#50505E" stroke-miterlimit="10"/>
    <path d="M234.017 321.203H225.012V330.21H234.017V321.203Z" stroke="#50505E" stroke-miterlimit="10"/>
    <path d="M225.493 296.685H216.488V305.692H225.493V296.685Z" stroke="#50505E" stroke-miterlimit="10"/>
    <path d="M337.196 49.9791V103.289L407.503 167.857V205.001V207.753V461.578H330.693V207.753V205.001V131.599V97.3037V49.9791H337.196Z" stroke="#50505E" stroke-miterlimit="10"/>
    <path d="M391.725 205.001H343.719" stroke="#50505E" stroke-miterlimit="10"/>
    <path d="M391.725 216.529H343.719" stroke="#50505E" stroke-miterlimit="10"/>
    <path d="M391.725 228.076H343.719" stroke="#50505E" stroke-miterlimit="10"/>
    <path d="M391.725 239.604H343.719" stroke="#50505E" stroke-miterlimit="10"/>
    <path d="M391.725 251.132H343.719" stroke="#50505E" stroke-miterlimit="10"/>
    <path d="M391.725 262.66H343.719" stroke="#50505E" stroke-miterlimit="10"/>
    <path d="M391.725 274.188H343.719" stroke="#50505E" stroke-miterlimit="10"/>
    <path d="M391.725 285.716H343.719" stroke="#50505E" stroke-miterlimit="10"/>
    <path d="M391.725 297.244H343.719" stroke="#50505E" stroke-miterlimit="10"/>
    <path d="M391.725 308.792H343.719" stroke="#50505E" stroke-miterlimit="10"/>
    <path d="M391.725 320.32H343.719" stroke="#50505E" stroke-miterlimit="10"/>
    <path d="M391.725 331.848H343.719" stroke="#50505E" stroke-miterlimit="10"/>
    <path d="M391.725 343.376H343.719" stroke="#50505E" stroke-miterlimit="10"/>
    <path d="M391.725 354.904H343.719" stroke="#50505E" stroke-miterlimit="10"/>
    <path d="M391.725 366.432H343.719" stroke="#50505E" stroke-miterlimit="10"/>
    <path d="M391.725 377.96H343.719" stroke="#50505E" stroke-miterlimit="10"/>
    <path d="M391.725 389.488H343.719" stroke="#50505E" stroke-miterlimit="10"/>
    <path d="M391.725 401.035H343.719" stroke="#50505E" stroke-miterlimit="10"/>
    <path d="M391.725 412.563H343.719" stroke="#50505E" stroke-miterlimit="10"/>
    <path d="M391.725 424.091H343.719" stroke="#50505E" stroke-miterlimit="10"/>
    <path d="M391.725 435.619H343.719" stroke="#50505E" stroke-miterlimit="10"/>
    <path d="M391.725 447.147H343.719" stroke="#50505E" stroke-miterlimit="10"/>
    <path d="M407.302 469.934V419.796H419.905V331.19H438.3V223.839H469.508V157.48H485.478V57H498.158V157.48H508.702V278.265H524.384V364" stroke="#50505E" stroke-miterlimit="10"/>
    <path d="M448.151 439.387H420.04" stroke="#50505E" stroke-miterlimit="10"/>
    <path d="M448.151 449.53H420.04" stroke="#50505E" stroke-miterlimit="10"/>
    <path d="M448.151 459.672H420.04" stroke="#50505E" stroke-miterlimit="10"/>
    <path d="M448.151 469.795H420.04" stroke="#50505E" stroke-miterlimit="10"/>
    <path d="M457.098 338.715H428.987" stroke="#50505E" stroke-miterlimit="10"/>
    <path d="M457.098 348.838H428.987" stroke="#50505E" stroke-miterlimit="10"/>
    <path d="M457.098 358.98H428.987" stroke="#50505E" stroke-miterlimit="10"/>
    <path d="M457.098 369.122H428.987" stroke="#50505E" stroke-miterlimit="10"/>
    <path d="M457.098 379.265H428.987" stroke="#50505E" stroke-miterlimit="10"/>
    <path d="M457.098 389.388H428.987" stroke="#50505E" stroke-miterlimit="10"/>
    <path d="M517.765 287.945H489.654" stroke="#50505E" stroke-miterlimit="10"/>
    <path d="M517.765 298.088H489.654" stroke="#50505E" stroke-miterlimit="10"/>
    <path d="M517.765 308.211H489.654" stroke="#50505E" stroke-miterlimit="10"/>
    <path d="M517.765 318.353H489.654" stroke="#50505E" stroke-miterlimit="10"/>
    <path d="M517.765 328.495H489.654" stroke="#50505E" stroke-miterlimit="10"/>
    <path d="M517.765 338.638H489.654" stroke="#50505E" stroke-miterlimit="10"/>
    <path d="M517.765 348.761H489.654" stroke="#50505E" stroke-miterlimit="10"/>
    <path d="M471.163 232.153H443.033" stroke="#50505E" stroke-miterlimit="10"/>
    <path d="M471.163 242.295H443.033" stroke="#50505E" stroke-miterlimit="10"/>
    <path d="M471.163 252.418H443.033" stroke="#50505E" stroke-miterlimit="10"/>
    <path d="M471.163 262.56H443.033" stroke="#50505E" stroke-miterlimit="10"/>
    <path d="M471.163 272.703H443.033" stroke="#50505E" stroke-miterlimit="10"/>
    <path d="M471.163 282.845H443.033" stroke="#50505E" stroke-miterlimit="10"/>
    <path d="M471.163 292.968H443.033" stroke="#50505E" stroke-miterlimit="10"/>
    <path d="M503.7 162.754H475.589" stroke="#50505E" stroke-miterlimit="10"/>
    <path d="M503.7 172.896H475.589" stroke="#50505E" stroke-miterlimit="10"/>
    <path d="M503.7 183.038H475.589" stroke="#50505E" stroke-miterlimit="10"/>
    <path d="M503.7 193.161H475.589" stroke="#50505E" stroke-miterlimit="10"/>
    <path d="M503.7 203.304H475.589" stroke="#50505E" stroke-miterlimit="10"/>
    <path d="M503.7 213.446H475.589" stroke="#50505E" stroke-miterlimit="10"/>
    <path d="M503.7 223.569H475.589" stroke="#50505E" stroke-miterlimit="10"/>
    <path d="M601.015 381.178V299.673H575.617V249.308H566.61V173H557.984V249.308H540.977V299.673H523.5" stroke="#50505E" stroke-miterlimit="10"/>
    <path d="M57.3047 357V310.407H49.9547V270.492H47.3187V310.407H43.0664V286.043H40.4304V310.407H35.8703V304.153H21.5934V310.407H1.54431V460" stroke="#50505E" stroke-miterlimit="10"/>
    <path d="M44.3555 321.57H7.91284" stroke="#50505E" stroke-miterlimit="10"/>
    <path d="M43.624 329.884H7.9126" stroke="#50505E" stroke-miterlimit="10"/>
    <path d="M42.8931 338.179H7.91284" stroke="#50505E" stroke-miterlimit="10"/>
    <path d="M42.1621 346.493H7.91309" stroke="#50505E" stroke-miterlimit="10"/>
    <path d="M41.4307 354.787H7.91272" stroke="#50505E" stroke-miterlimit="10"/>
    <path d="M40.6997 363.101H7.91284" stroke="#50505E" stroke-miterlimit="10"/>
    <path d="M39.9688 371.396H7.91309" stroke="#50505E" stroke-miterlimit="10"/>
    <path d="M39.2568 379.71H7.91296" stroke="#50505E" stroke-miterlimit="10"/>
    <path d="M38.5254 388.024H7.91284" stroke="#50505E" stroke-miterlimit="10"/>
    <path d="M37.7944 396.319H7.91296" stroke="#50505E" stroke-miterlimit="10"/>
    <path d="M37.063 404.633H7.91272" stroke="#50505E" stroke-miterlimit="10"/>
    <path d="M36.332 412.928H7.91296" stroke="#50505E" stroke-miterlimit="10"/>
    <path d="M35.6006 421.242H7.9126" stroke="#50505E" stroke-miterlimit="10"/>
    <path d="M34.8696 429.537H7.91284" stroke="#50505E" stroke-miterlimit="10"/>
    <path d="M34.1577 437.851H7.91284" stroke="#50505E" stroke-miterlimit="10"/>
    <path d="M33.4268 446.146H7.91309" stroke="#50505E" stroke-miterlimit="10"/>
    <path d="M32.6953 454.46H7.91272" stroke="#50505E" stroke-miterlimit="10"/>
    <path d="M31.9639 462.754H7.9126" stroke="#50505E" stroke-miterlimit="10"/>
    <path d="M581.545 364V374.797H575.734V468.247H468.119V374.797H461V364H581.545Z" stroke="#50505E" stroke-miterlimit="10"/>
    <path d="M544.371 393.749H548.008C548.662 393.749 549.201 393.21 549.201 392.556V385.281C549.201 384.626 548.662 384.088 548.008 384.088H544.371C543.717 384.088 543.178 384.626 543.178 385.281V392.556C543.197 393.21 543.717 393.749 544.371 393.749Z" stroke="#50505E" stroke-miterlimit="10"/>
    <path d="M528.767 393.749H532.403C533.057 393.749 533.596 393.21 533.596 392.556V385.281C533.596 384.626 533.057 384.088 532.403 384.088H528.767C528.112 384.088 527.574 384.626 527.574 385.281V392.556C527.574 393.21 528.112 393.749 528.767 393.749Z" stroke="#50505E" stroke-miterlimit="10"/>
    <path d="M513.143 393.749H516.78C517.434 393.749 517.973 393.21 517.973 392.556V385.281C517.973 384.626 517.434 384.088 516.78 384.088H513.143C512.489 384.088 511.95 384.626 511.95 385.281V392.556C511.969 393.21 512.489 393.749 513.143 393.749Z" stroke="#50505E" stroke-miterlimit="10"/>
    <path d="M497.539 393.749H501.175C501.829 393.749 502.368 393.21 502.368 392.556V385.281C502.368 384.626 501.829 384.088 501.175 384.088H497.539C496.884 384.088 496.346 384.626 496.346 385.281V392.556C496.346 393.21 496.884 393.749 497.539 393.749Z" stroke="#50505E" stroke-miterlimit="10"/>
    <path d="M481.915 393.749H485.551C486.205 393.749 486.744 393.21 486.744 392.556V385.281C486.744 384.626 486.205 384.088 485.551 384.088H481.915C481.26 384.088 480.722 384.626 480.722 385.281V392.556C480.741 393.21 481.26 393.749 481.915 393.749Z" stroke="#50505E" stroke-miterlimit="10"/>
    <path d="M544.371 407.952H548.008C548.662 407.952 549.201 407.413 549.201 406.759V399.484C549.201 398.83 548.662 398.291 548.008 398.291H544.371C543.717 398.291 543.178 398.83 543.178 399.484V406.759C543.197 407.413 543.717 407.952 544.371 407.952Z" stroke="#50505E" stroke-miterlimit="10"/>
    <path d="M528.767 407.952H532.403C533.057 407.952 533.596 407.413 533.596 406.759V399.484C533.596 398.83 533.057 398.291 532.403 398.291H528.767C528.112 398.291 527.574 398.83 527.574 399.484V406.759C527.574 407.413 528.112 407.952 528.767 407.952Z" stroke="#50505E" stroke-miterlimit="10"/>
    <path d="M513.143 407.952H516.78C517.434 407.952 517.973 407.413 517.973 406.759V399.484C517.973 398.83 517.434 398.291 516.78 398.291H513.143C512.489 398.291 511.95 398.83 511.95 399.484V406.759C511.969 407.413 512.489 407.952 513.143 407.952Z" stroke="#50505E" stroke-miterlimit="10"/>
    <path d="M497.539 407.952H501.175C501.829 407.952 502.368 407.413 502.368 406.759V399.484C502.368 398.83 501.829 398.291 501.175 398.291H497.539C496.884 398.291 496.346 398.83 496.346 399.484V406.759C496.346 407.413 496.884 407.952 497.539 407.952Z" stroke="#50505E" stroke-miterlimit="10"/>
    <path d="M481.915 407.952H485.551C486.205 407.952 486.744 407.413 486.744 406.759V399.484C486.744 398.83 486.205 398.291 485.551 398.291H481.915C481.26 398.291 480.722 398.83 480.722 399.484V406.759C480.741 407.413 481.26 407.952 481.915 407.952Z" stroke="#50505E" stroke-miterlimit="10"/>
    <path d="M544.371 422.155H548.008C548.662 422.155 549.201 421.616 549.201 420.962V413.687C549.201 413.033 548.662 412.494 548.008 412.494H544.371C543.717 412.494 543.178 413.033 543.178 413.687V420.962C543.197 421.616 543.717 422.155 544.371 422.155Z" stroke="#50505E" stroke-miterlimit="10"/>
    <path d="M528.767 422.155H532.403C533.057 422.155 533.596 421.616 533.596 420.962V413.687C533.596 413.033 533.057 412.494 532.403 412.494H528.767C528.112 412.494 527.574 413.033 527.574 413.687V420.962C527.574 421.616 528.112 422.155 528.767 422.155Z" stroke="#50505E" stroke-miterlimit="10"/>
    <path d="M513.143 422.155H516.78C517.434 422.155 517.973 421.616 517.973 420.962V413.687C517.973 413.033 517.434 412.494 516.78 412.494H513.143C512.489 412.494 511.95 413.033 511.95 413.687V420.962C511.969 421.616 512.489 422.155 513.143 422.155Z" stroke="#50505E" stroke-miterlimit="10"/>
    <path d="M497.539 422.155H501.175C501.829 422.155 502.368 421.616 502.368 420.962V413.687C502.368 413.033 501.829 412.494 501.175 412.494H497.539C496.884 412.494 496.346 413.033 496.346 413.687V420.962C496.346 421.616 496.884 422.155 497.539 422.155Z" stroke="#50505E" stroke-miterlimit="10"/>
    <path d="M481.915 422.155H485.551C486.205 422.155 486.744 421.616 486.744 420.962V413.687C486.744 413.033 486.205 412.494 485.551 412.494H481.915C481.26 412.494 480.722 413.033 480.722 413.687V420.962C480.741 421.616 481.26 422.155 481.915 422.155Z" stroke="#50505E" stroke-miterlimit="10"/>
    <path d="M283.294 172.487V164.173H302.227V172.487H308.269V140.154H311.77V172.487H317.427V119.523H320.929V172.487H330.665V468.443H256.683V172.487H283.294Z" stroke="#50505E" stroke-miterlimit="10"/>
    <path d="M313.483 187.306H265.13" stroke="#50505E" stroke-miterlimit="10"/>
    <path d="M312.501 198.314H265.13" stroke="#50505E" stroke-miterlimit="10"/>
    <path d="M311.54 209.342H265.13" stroke="#50505E" stroke-miterlimit="10"/>
    <path d="M310.578 220.369H265.13" stroke="#50505E" stroke-miterlimit="10"/>
    <path d="M309.615 231.378H265.13" stroke="#50505E" stroke-miterlimit="10"/>
    <path d="M308.634 242.405H265.13" stroke="#50505E" stroke-miterlimit="10"/>
    <path d="M307.672 253.414H265.13" stroke="#50505E" stroke-miterlimit="10"/>
    <path d="M306.71 264.441H265.13" stroke="#50505E" stroke-miterlimit="10"/>
    <path d="M305.748 275.469H265.13" stroke="#50505E" stroke-miterlimit="10"/>
    <path d="M304.767 286.477H265.13" stroke="#50505E" stroke-miterlimit="10"/>
    <path d="M303.805 297.505H265.13" stroke="#50505E" stroke-miterlimit="10"/>
    <path d="M302.843 308.533H265.13" stroke="#50505E" stroke-miterlimit="10"/>
    <path d="M301.881 319.541H265.13" stroke="#50505E" stroke-miterlimit="10"/>
    <path d="M300.899 330.569H265.13" stroke="#50505E" stroke-miterlimit="10"/>
    <path d="M299.938 341.577H265.13" stroke="#50505E" stroke-miterlimit="10"/>
    <path d="M298.975 352.605H265.13" stroke="#50505E" stroke-miterlimit="10"/>
    <path d="M298.013 363.632H265.13" stroke="#50505E" stroke-miterlimit="10"/>
    <path d="M297.032 374.641H265.13" stroke="#50505E" stroke-miterlimit="10"/>
    <path d="M296.07 385.668H265.13" stroke="#50505E" stroke-miterlimit="10"/>
    <path d="M295.108 396.696H265.13" stroke="#50505E" stroke-miterlimit="10"/>
    <path d="M294.146 407.704H265.13" stroke="#50505E" stroke-miterlimit="10"/>
    <path d="M293.165 418.732H265.13" stroke="#50505E" stroke-miterlimit="10"/>
    <path d="M545.115 120.011C545.038 119.261 545 118.51 545 117.76C545 105.019 555.332 94.6843 568.07 94.6843C570.975 94.6843 573.765 95.2231 576.343 96.2239C583.155 86.428 594.507 80 607.341 80C624.407 80 638.838 91.3356 643.494 106.886C644.014 106.828 644.553 106.809 645.091 106.809C652.903 106.809 659.349 112.544 660.542 120.011H545.115Z" stroke="#50505E" stroke-miterlimit="10"/>
    <path d="M418.94 41.0113C419.056 40.2607 419.113 39.5101 419.113 38.7595C419.113 26.0191 403.278 15.6843 383.748 15.6843C379.284 15.6843 375.013 16.2231 371.088 17.2239C360.64 7.42798 343.246 1 323.562 1C297.395 1 275.287 12.3356 268.129 27.8859C267.321 27.8281 266.513 27.8089 265.685 27.8089C253.717 27.8089 243.828 33.544 242 41.0113H418.94Z" stroke="#50505E" stroke-miterlimit="10"/>
    <path d="M234.098 90.2856L254.852 82.5333L253.552 108.852C253.48 110.285 252.562 111.532 251.221 112.037L248.818 112.934C248.364 113.109 247.848 112.924 247.59 112.511L234.098 90.2856Z" fill="#202026" stroke="#CA3947" stroke-miterlimit="10" stroke-linecap="round" stroke-linejoin="round"/>
    <path fill-rule="evenodd" clip-rule="evenodd" d="M222.597 80.947C205.541 87.3177 190.315 93.0047 185.911 94.6497L176.629 87.9413C175.887 87.4052 174.927 87.2712 174.061 87.5908L172.369 88.2196C172.008 88.3536 171.884 88.7969 172.122 89.0959L181.127 100.858L178.661 101.776C178.104 101.982 177.816 102.611 178.022 103.167C178.228 103.724 178.857 104.013 179.414 103.807L187.867 100.652C192.007 100.938 206.371 101.604 218.714 96.9924C222.068 95.7398 225.771 94.357 229.706 92.8877C247.661 86.1824 270.441 77.6752 286.906 71.5194C288.938 70.7565 293.714 67.2515 292.91 65.2413C291.713 62.2723 284.503 63.0455 284.503 63.0455C284.503 63.0455 280.006 59.5096 275.178 61.3033C268.685 63.7302 257.99 67.726 246.183 72.1365L201.23 46.366C200.519 45.9536 199.663 45.8918 198.889 46.1701L194.825 47.6855C194.247 47.902 194.062 48.6339 194.474 49.0978L222.597 80.947Z" fill="#202026"/>
    <path d="M185.911 94.6497L185.618 95.0549C185.753 95.1529 185.929 95.1766 186.085 95.118L185.911 94.6497ZM222.597 80.947L222.772 81.4154C222.926 81.3578 223.042 81.228 223.082 81.0683C223.122 80.9086 223.081 80.7395 222.972 80.6161L222.597 80.947ZM176.629 87.9413L176.922 87.5361L176.922 87.5359L176.629 87.9413ZM174.061 87.5908L173.888 87.1217L173.887 87.1221L174.061 87.5908ZM172.369 88.2196L172.543 88.6884L172.544 88.6883L172.369 88.2196ZM172.122 89.0959L172.519 88.7919L172.513 88.7851L172.122 89.0959ZM181.127 100.858L181.301 101.327C181.45 101.272 181.563 101.149 181.607 100.997C181.651 100.844 181.62 100.68 181.524 100.554L181.127 100.858ZM178.661 101.776L178.835 102.245L178.836 102.244L178.661 101.776ZM179.414 103.807L179.588 104.275L179.589 104.275L179.414 103.807ZM187.867 100.652L187.902 100.153C187.83 100.148 187.759 100.159 187.692 100.184L187.867 100.652ZM218.714 96.9924L218.539 96.524L218.539 96.524L218.714 96.9924ZM229.706 92.8877L229.531 92.4193L229.706 92.8877ZM286.906 71.5194L287.081 71.9877L287.082 71.9875L286.906 71.5194ZM292.91 65.2413L293.374 65.0555L293.373 65.0544L292.91 65.2413ZM284.503 63.0455L284.194 63.4386C284.296 63.5192 284.427 63.5566 284.556 63.5427L284.503 63.0455ZM275.178 61.3033L275.004 60.8346L275.003 60.835L275.178 61.3033ZM246.183 72.1365L245.935 72.5703C246.064 72.6442 246.219 72.6569 246.358 72.6049L246.183 72.1365ZM201.23 46.366L200.98 46.7986L200.982 46.7997L201.23 46.366ZM198.889 46.1701L198.72 45.6996L198.714 45.7016L198.889 46.1701ZM194.825 47.6855L194.65 47.217L194.649 47.2173L194.825 47.6855ZM194.474 49.0978L194.849 48.7669L194.848 48.7655L194.474 49.0978ZM186.085 95.118C190.49 93.4731 205.716 87.7861 222.772 81.4154L222.422 80.4786C205.367 86.8493 190.14 92.5363 185.736 94.1813L186.085 95.118ZM176.336 88.3465L185.618 95.0549L186.203 94.2444L176.922 87.5361L176.336 88.3465ZM174.234 88.0599C174.944 87.7981 175.729 87.9078 176.337 88.3467L176.922 87.5359C176.045 86.9026 174.911 86.7444 173.888 87.1217L174.234 88.0599ZM172.544 88.6883L174.235 88.0595L173.887 87.1221L172.195 87.751L172.544 88.6883ZM172.513 88.7851C172.489 88.7542 172.499 88.7049 172.543 88.6884L172.195 87.7509C171.518 88.0024 171.28 88.8396 171.73 89.4067L172.513 88.7851ZM181.524 100.554L172.519 88.7919L171.725 89.3998L180.73 101.162L181.524 100.554ZM178.836 102.244L181.301 101.327L180.952 100.39L178.487 101.307L178.836 102.244ZM178.491 102.994C178.38 102.696 178.537 102.355 178.835 102.245L178.488 101.307C177.672 101.609 177.251 102.525 177.553 103.341L178.491 102.994ZM179.241 103.338C178.942 103.448 178.601 103.291 178.491 102.994L177.553 103.341C177.855 104.157 178.772 104.577 179.588 104.275L179.241 103.338ZM187.692 100.184L179.24 103.338L179.589 104.275L188.042 101.12L187.692 100.184ZM218.539 96.524C206.304 101.096 192.033 100.439 187.902 100.153L187.833 101.151C191.981 101.438 206.438 102.113 218.889 97.4608L218.539 96.524ZM229.531 92.4193C225.596 93.8886 221.893 95.2714 218.539 96.524L218.889 97.4608C222.243 96.2082 225.946 94.8254 229.881 93.3561L229.531 92.4193ZM286.731 71.051C270.266 77.2068 247.486 85.714 229.531 92.4193L229.881 93.3561C247.836 86.6508 270.616 78.1436 287.081 71.9877L286.731 71.051ZM292.445 65.4271C292.56 65.7132 292.505 66.1332 292.166 66.7096C291.835 67.2716 291.291 67.883 290.636 68.4778C289.32 69.6715 287.672 70.698 286.731 71.0513L287.082 71.9875C288.173 71.5778 289.928 70.4705 291.308 69.2183C292 68.5903 292.625 67.9008 293.028 67.2164C293.422 66.5464 293.662 65.7745 293.374 65.0555L292.445 65.4271ZM284.503 63.0455C284.556 63.5427 284.556 63.5427 284.556 63.5427C284.556 63.5427 284.556 63.5427 284.556 63.5427C284.556 63.5427 284.556 63.5426 284.557 63.5426C284.557 63.5425 284.558 63.5424 284.56 63.5423C284.563 63.542 284.567 63.5415 284.574 63.5409C284.586 63.5396 284.605 63.5378 284.631 63.5354C284.681 63.5307 284.757 63.5241 284.853 63.5166C285.047 63.5017 285.327 63.4835 285.667 63.4707C286.348 63.4451 287.264 63.4416 288.212 63.528C289.165 63.6148 290.123 63.7901 290.902 64.1085C291.685 64.4286 292.218 64.8635 292.446 65.4282L293.373 65.0544C293.003 64.1346 292.186 63.5527 291.28 63.1828C290.371 62.8111 289.302 62.6231 288.303 62.5321C287.299 62.4406 286.337 62.4448 285.629 62.4714C285.275 62.4848 284.982 62.5038 284.777 62.5196C284.674 62.5274 284.593 62.5345 284.538 62.5397C284.51 62.5423 284.489 62.5444 284.474 62.5459C284.466 62.5466 284.461 62.5472 284.457 62.5476C284.455 62.5478 284.453 62.548 284.452 62.5481C284.451 62.5482 284.451 62.5482 284.45 62.5483C284.45 62.5483 284.45 62.5483 284.45 62.5483C284.45 62.5483 284.45 62.5484 284.503 63.0455ZM275.352 61.772C277.611 60.9326 279.809 61.3338 281.472 61.9689C282.302 62.2855 282.987 62.6564 283.464 62.9478C283.703 63.0933 283.888 63.2184 284.012 63.306C284.075 63.3498 284.122 63.3841 284.152 63.407C284.168 63.4184 284.179 63.4269 284.186 63.4323C284.189 63.4349 284.192 63.4368 284.193 63.4379C284.194 63.4384 284.194 63.4387 284.194 63.4389C284.194 63.4389 284.194 63.4389 284.194 63.4389C284.194 63.4389 284.194 63.4388 284.194 63.4388C284.194 63.4387 284.194 63.4386 284.503 63.0455C284.812 62.6524 284.812 62.6523 284.812 62.6522C284.812 62.6521 284.811 62.652 284.811 62.6518C284.811 62.6516 284.81 62.6512 284.81 62.6509C284.809 62.6501 284.808 62.6492 284.806 62.648C284.803 62.6457 284.799 62.6425 284.794 62.6386C284.784 62.6307 284.769 62.6196 284.75 62.6055C284.713 62.5774 284.658 62.5376 284.588 62.4882C284.448 62.3894 284.244 62.2523 283.985 62.0943C283.469 61.7788 282.728 61.3778 281.829 61.0347C280.037 60.3502 277.573 59.8803 275.004 60.8346L275.352 61.772ZM246.358 72.6049C258.165 68.1943 268.86 64.1986 275.353 61.7717L275.003 60.835C268.51 63.2619 257.815 67.2576 246.008 71.6681L246.358 72.6049ZM246.432 71.7027L201.479 45.9322L200.982 46.7997L245.935 72.5703L246.432 71.7027ZM201.481 45.9333C200.636 45.4436 199.625 45.3738 198.72 45.6996L199.058 46.6406C199.7 46.4098 200.402 46.4636 200.98 46.7986L201.481 45.9333ZM198.714 45.7016L194.65 47.217L195 48.154L199.064 46.6386L198.714 45.7016ZM194.649 47.2173C193.746 47.556 193.453 48.7016 194.101 49.4301L194.848 48.7655C194.67 48.5662 194.749 48.248 195 48.1537L194.649 47.2173ZM194.099 49.4287L222.222 81.278L222.972 80.6161L194.849 48.7669L194.099 49.4287Z" fill="#CA3947"/>
    <path d="M16.1113 371.778V402.294C16.1113 402.294 34.693 387.041 32.4046 382.712C30.1162 378.393 16.1113 371.778 16.1113 371.778Z" fill="#202026" stroke="#CA3947" stroke-miterlimit="10"/>
    <path d="M236.996 379.013C236.996 379.013 229.765 374.502 196.792 363.669C163.819 352.836 142.593 349.229 110.067 350.133C77.5418 351.038 33.727 363.222 25.6007 366.382C17.4744 369.543 13.8537 370.447 15.664 372.703C17.4744 374.959 27.411 383.078 26.0482 386.696C24.6955 390.303 2.56433 410.16 1.20147 413.32C-0.151215 416.48 5.71721 427.313 6.62239 430.016C7.52757 432.719 12.4908 433.623 16.559 434.081C20.6273 434.528 309.706 434.081 309.706 434.081C309.706 434.081 313.774 429.112 312.869 422.801C311.963 416.48 310.997 408.148 306.929 402.813C303.634 398.494 300.227 393.921 291.643 393.017C286.252 392.437 238.349 379.471 236.996 379.013Z" fill="#202026" stroke="#CA3947" stroke-miterlimit="10"/>
    <path d="M66.1709 362.368L84.244 381.442H217.092V377.123C217.092 377.123 189.855 366.443 161.103 360.844C132.341 355.245 125.221 355.763 112.233 356.017C99.2558 356.261 66.1709 362.368 66.1709 362.368Z" fill="#202026" stroke="#CA3947" stroke-miterlimit="10"/>
    <path d="M126.238 383.983V425.433" stroke="#CA3947" stroke-miterlimit="10"/>
    <path d="M62.753 457.042C77.3949 453.644 86.5083 439.031 83.1082 424.402C79.7081 409.772 65.0822 400.667 50.4403 404.064C35.7983 407.461 26.685 422.074 30.0851 436.704C33.4851 451.333 48.1111 460.439 62.753 457.042Z" fill="#202026" stroke="#CA3947" stroke-miterlimit="10"/>
    <path d="M56.6003 410.922C45.7585 410.922 36.9609 419.712 36.9609 430.544C36.9609 441.377 45.7585 450.167 56.6003 450.167C67.4422 450.167 76.2397 441.377 76.2397 430.544C76.2397 419.712 67.4523 410.922 56.6003 410.922ZM69.7916 426.611L58.3497 428.756L61.5941 417.73C65.5301 419.264 68.5813 422.547 69.7916 426.611ZM57.5869 429.558V431.53H55.6138V429.558H57.5869ZM52.6643 417.364L54.8103 428.796L43.7752 425.555C45.311 421.622 48.5961 418.573 52.6643 417.364ZM43.4091 434.477L54.851 432.333L51.6066 443.358C47.6706 441.834 44.6194 438.552 43.4091 434.477ZM60.5363 443.724L58.3903 432.292L69.4254 435.534C67.8998 439.466 64.6147 442.515 60.5363 443.724Z" fill="#202026" stroke="#CA3947" stroke-miterlimit="10"/>
    <path d="M62.6926 430.544C62.6926 427.181 59.9669 424.457 56.6005 424.457C53.234 424.457 50.5083 427.181 50.5083 430.544C50.5083 433.908 53.234 436.631 56.6005 436.631C59.9669 436.631 62.6926 433.908 62.6926 430.544Z" fill="#202026" stroke="#CA3947" stroke-miterlimit="10"/>
    <path d="M267.362 449.772C277.991 439.152 277.991 421.935 267.362 411.315C256.734 400.696 239.501 400.696 228.873 411.315C218.244 421.935 218.244 439.152 228.873 449.772C239.501 460.391 256.734 460.391 267.362 449.772Z" fill="#202026" stroke="#CA3947" stroke-miterlimit="10"/>
    <path d="M248.123 410.922C237.281 410.922 228.483 419.712 228.483 430.544C228.483 441.377 237.281 450.167 248.123 450.167C258.965 450.167 267.762 441.377 267.762 430.544C267.762 419.712 258.965 410.922 248.123 410.922ZM261.314 426.612L249.872 428.756L253.117 417.73C257.053 419.265 260.104 422.547 261.314 426.612ZM249.109 429.559V431.53H247.136V429.559H249.109ZM244.187 417.365L246.333 428.797L235.298 425.555C236.823 421.622 240.108 418.574 244.187 417.365ZM234.921 434.477L246.363 432.333L243.119 443.359C239.193 441.834 236.142 438.552 234.921 434.477ZM252.049 443.724L249.903 432.292L260.938 435.534C259.412 439.467 256.127 442.515 252.049 443.724Z" fill="#202026" stroke="#CA3947" stroke-miterlimit="10"/>
    <path d="M254.205 430.544C254.205 427.181 251.479 424.458 248.113 424.458C244.746 424.458 242.021 427.181 242.021 430.544C242.021 433.908 244.746 436.631 248.113 436.631C251.479 436.631 254.205 433.908 254.205 430.544Z" fill="#202026" stroke="#CA3947" stroke-miterlimit="10"/>
    <path d="M306.929 402.803C306.929 402.803 286.68 401.766 285.774 402.803C284.869 403.839 292.548 411.959 295.264 413.767C297.41 415.2 307.519 414.926 311.608 414.753C310.733 410.414 309.411 406.055 306.929 402.803Z" fill="#202026" stroke="#CA3947" stroke-miterlimit="10"/>
    <path d="M129.564 356.149C128.232 356.058 126.981 355.997 125.761 355.956L122.354 381.361H131.385L129.564 356.149Z" fill="#202026" stroke="#CA3947" stroke-miterlimit="10"/>
    <path d="M393.129 242.615C393.129 242.615 397.643 244.073 396.335 248.727C395.026 253.382 391.82 253.242 391.82 253.242V242.185L393.129 242.615Z" fill="#202026" stroke="#CA3947" stroke-miterlimit="10"/>
    <path d="M341.361 453.871C341.361 453.871 348.153 461.442 351.059 462.801C353.966 464.159 355.714 464.359 355.524 466.297C355.334 468.234 348.342 468.624 345.436 468.624C342.529 468.624 338.644 465.707 335.927 465.517C333.211 465.318 326.998 466.486 324.671 465.128C322.344 463.77 322.923 460.663 323.902 457.946C324.871 455.23 328.177 449.407 328.177 449.407C328.177 449.407 333.99 455.619 341.361 453.871Z" fill="#202026" stroke="#CA3947" stroke-miterlimit="10"/>
    <path d="M355.524 466.287C355.544 466.087 355.534 465.907 355.514 465.747C350.24 468.973 343.548 465.617 339.803 464.539C335.728 463.37 333.401 464.349 329.136 464.539C326.189 464.669 324.082 462.961 323.053 461.882C323.043 463.23 323.462 464.409 324.671 465.118C326.998 466.476 333.211 465.308 335.927 465.507C338.644 465.697 342.52 468.614 345.436 468.614C348.343 468.614 355.334 468.224 355.524 466.287Z" fill="#202026" stroke="#CA3947" stroke-miterlimit="10"/>
    <path d="M350.44 375.565C350.44 375.565 350.829 387.201 348.112 393.414C345.396 399.626 335.697 413.2 334.728 421.93C333.76 430.659 328.945 445.332 328.366 448.048C327.787 450.765 326.618 450.765 327.787 451.924C328.955 453.092 332.251 454.83 334.768 455.03C337.295 455.22 342.529 455.809 342.529 455.22C342.529 454.64 342.719 452.892 342.719 452.113C342.719 451.334 343.108 448.428 343.498 447.649C343.887 446.87 351.998 422.309 356.462 413.959C360.927 405.619 368.098 396.5 368.878 396.111C369.657 395.721 354.135 374.187 354.135 374.187C354.135 374.187 351.608 372.649 350.44 375.565Z" fill="#202026" stroke="#CA3947" stroke-miterlimit="10"/>
    <path d="M387.695 462.092C387.695 462.092 390.991 468.104 391.77 468.883C392.549 469.663 399.142 466.356 404.385 462.481C409.619 458.596 417 448.128 417 444.822C417 441.526 413.125 441.916 411.567 442.685C410.019 443.464 405.354 445.791 402.258 446.95C399.162 448.108 397.993 448.498 397.993 448.498L387.695 462.092Z" fill="#202026" stroke="#CA3947" stroke-miterlimit="10"/>
    <path d="M416.98 444.702C415.502 447.189 412.725 451.354 408.061 456.269C401.489 463.2 392.479 467.195 391.011 467.825C391.341 468.334 391.611 468.724 391.77 468.883C392.549 469.662 399.142 466.356 404.385 462.481C409.619 458.596 417 448.128 417 444.822C416.99 444.782 416.98 444.752 416.98 444.702Z" fill="#202026" stroke="#CA3947" stroke-miterlimit="10"/>
    <path d="M338.804 335.783C338.993 336.362 337.835 353.242 341.71 362.751C345.585 372.259 357.621 393.214 360.528 398.058C363.434 402.913 363.634 402.713 365.182 406.009C366.73 409.305 370.615 422.699 373.522 431.039C376.428 439.379 378.756 446.56 380.314 449.856C381.862 453.152 383.22 456.648 383.22 457.617C383.22 458.586 383.22 459.555 384.189 460.523C385.158 461.492 387.485 463.63 388.065 463.63C388.644 463.63 395.046 458.396 396.405 456.448C397.763 454.511 400.09 448.877 400.09 448.877C400.09 448.877 397.184 445.382 395.825 442.865C394.467 440.338 393.688 442.865 391.56 433.746C389.423 424.627 382.252 399.986 380.114 393.194C377.977 386.402 373.132 376.894 373.132 376.894C373.132 376.894 376.428 362.541 377.787 352.643C379.145 342.745 379.145 337.311 379.145 337.311C379.145 337.311 368.858 338.48 357.032 337.311C345.206 336.143 338.804 335.783 338.804 335.783Z" fill="#202026" stroke="#CA3947" stroke-miterlimit="10"/>
    <path d="M360.338 340.827C360.338 340.827 366.351 341.896 371.005 341.216C375.659 340.537 379.545 339.279 379.545 339.279C379.545 339.279 379.155 327.833 379.155 316.386C379.155 304.94 379.735 295.242 379.735 292.135C379.735 289.029 378.186 280.299 376.049 276.035C373.912 271.77 367.319 272.539 360.717 272.539C354.125 272.539 342.869 277.393 339.762 280.299C336.656 283.206 334.139 315.417 334.139 323.368C334.139 331.318 337.435 336.752 339.962 338.31C342.489 339.858 360.338 340.827 360.338 340.827Z" fill="#202026" stroke="#CA3947" stroke-miterlimit="10"/>
    <path d="M379.595 293.833C379.595 293.833 384.109 308.386 385.847 312.171C387.595 315.957 388.035 323.088 387.156 327.013C386.287 330.939 383.949 335.603 383.949 335.603L378.126 321.2L378.995 309.265L378.706 294.423C378.716 294.413 379.015 293.544 379.595 293.833Z" fill="#202026" stroke="#CA3947" stroke-miterlimit="10"/>
    <path d="M379.595 319.443C379.595 319.443 382.212 316.097 383.52 315.078" stroke="#CA3947" stroke-miterlimit="10"/>
    <path d="M368.098 291.216C368.098 291.216 369.986 296.16 371.155 312.021C372.323 327.882 374.83 341.256 373.232 343.444C371.634 345.631 367.569 348.338 367.569 350.375C367.569 352.413 365.901 352.313 365.022 352.453C364.153 352.603 363.584 352.902 351.508 349.846C339.433 346.79 336.666 346.061 336.666 346.061C336.666 346.061 336.816 342.565 336.227 342.565C335.647 342.565 332.731 342.125 332.881 338.49C333.03 334.854 334.189 314.189 334.628 301.234C335.068 288.28 336.516 280.569 341.32 277.223C346.125 273.877 351.069 273.148 355.434 272.279C359.808 271.42 368.098 291.216 368.098 291.216Z" fill="#202026" stroke="#CA3947" stroke-miterlimit="10"/>
    <path d="M365.022 352.453C365.891 352.303 367.569 352.413 367.569 350.375C367.569 350.016 367.699 349.636 367.909 349.247C365.531 349.217 361.746 348.997 357.161 348.058C349.76 346.56 336.227 342.575 336.227 342.575C336.806 342.575 336.666 346.071 336.666 346.071C336.666 346.071 339.433 346.8 351.508 349.856C363.584 352.912 364.153 352.603 365.022 352.453Z" fill="#202026" stroke="#CA3947" stroke-miterlimit="10"/>
    <path d="M360.238 336.762C360.238 336.762 360.088 330.509 358.779 325.995" stroke="#CA3947" stroke-miterlimit="10"/>
    <path d="M377.408 292.814C377.408 292.814 378.137 301.404 378.137 308.675C378.137 315.947 375.66 337.92 375.66 340.547C375.66 343.164 378.277 351.464 378.277 351.464C378.277 351.464 382.062 350.156 382.202 349.576C382.352 348.997 381.183 346.23 381.183 346.23C381.183 346.23 381.912 345.361 381.912 344.343C381.912 343.324 381.912 343.324 381.912 343.324C381.912 343.324 385.408 339.828 385.408 338.959C385.408 338.09 383.95 331.688 382.352 327.173C380.754 322.659 379.735 320.331 379.585 319.463C379.435 318.594 380.164 306.218 379.735 301.274C379.295 296.33 380.754 294.722 380.754 290.947C380.754 287.161 382.212 283.675 380.024 279.74C377.837 275.815 377.547 281.338 377.547 283.955C377.557 286.552 377.408 292.814 377.408 292.814Z" fill="#202026" stroke="#CA3947" stroke-miterlimit="10"/>
    <path d="M378.287 351.454C378.287 351.454 382.072 350.146 382.212 349.566C382.362 348.987 381.193 346.22 381.193 346.22C379.575 347.099 378.147 347.429 377.128 347.529C377.727 349.686 378.287 351.454 378.287 351.454Z" fill="#202026" stroke="#CA3947" stroke-miterlimit="10"/>
    <path d="M364.752 264.289C364.752 264.289 362.865 263.12 361.406 264.438C359.948 265.747 358.35 266.766 355.873 267.784C353.396 268.803 346.414 270.401 345.685 272.149C344.956 273.897 346.554 278.262 348.592 279.42C350.629 280.589 358.2 283.206 361.107 284.654C364.013 286.112 368.518 292.814 368.518 292.814C368.518 292.814 365.621 279.71 365.621 276.214C365.621 272.718 367.659 269.962 370.715 271.85C373.772 273.737 375.08 278.691 375.949 283.346C376.818 288 377.547 294.502 377.547 294.502C377.547 294.502 381.912 288.879 381.333 282.187C380.753 275.495 375.37 269.382 372.164 266.616C368.967 263.859 364.752 264.289 364.752 264.289Z" fill="#202026" stroke="#CA3947" stroke-miterlimit="10"/>
    <path d="M366.501 255.13C366.501 255.13 364.024 265.897 363.005 268.374C361.986 270.851 363.295 273.178 365.043 279.58C366.79 285.983 370.276 291.656 372.024 289.768C373.772 287.88 372.314 284.534 374.062 280.02C375.81 275.505 378.866 271.58 378.866 271.58L366.501 255.13Z" fill="#202026" stroke="#CA3947" stroke-miterlimit="10"/>
    <path d="M366.351 243.773C366.351 243.773 365.482 252.503 365.772 257.157C366.061 261.812 366.94 265.597 372.024 271.42C377.118 277.243 378.277 277.533 382.352 275.206C386.427 272.878 390.352 263.569 391.371 258.765C392.39 253.961 393.848 250.036 393.408 244.073C392.969 238.11 389.623 236.212 384.819 234.464C380.014 232.716 375.65 233.296 371.724 236.352C367.809 239.408 366.351 243.773 366.351 243.773Z" fill="#202026" stroke="#CA3947" stroke-miterlimit="10"/>
    <path d="M366.93 252.213C366.93 252.213 366.64 251.634 369.696 250.615C372.753 249.596 375.08 249.017 374.351 246.54C373.622 244.063 371.584 244.352 374.351 243.484C377.118 242.615 382.211 245.231 380.024 246.1C377.837 246.969 374.93 247.698 377.547 248.577C380.164 249.446 387.735 248.138 391.81 245.521C395.885 242.904 396.324 239.119 392.829 235.483C389.333 231.847 381.043 229.37 374.061 232.277C367.08 235.183 365.042 240.717 365.042 243.484C365.042 246.25 365.771 249.736 365.771 249.736C365.771 249.736 365.481 252.213 366.93 252.213Z" fill="#202026" stroke="#CA3947" stroke-miterlimit="10"/>
    <path d="M367.949 253.671C367.949 253.671 366.78 248.138 365.622 247.708C364.453 247.269 362.855 251.344 363.434 254.84C364.013 258.336 365.322 259.494 366.64 257.607" fill="#202026"/>
    <path d="M367.949 253.671C367.949 253.671 366.78 248.138 365.622 247.708C364.453 247.269 362.855 251.344 363.434 254.84C364.013 258.336 365.322 259.494 366.64 257.607" stroke="#CA3947" stroke-miterlimit="10"/>
    <path d="M356.312 334.574C356.312 334.574 357.181 335.593 358.06 335.883C358.929 336.172 360.248 336.752 360.248 336.752C360.248 336.752 359.668 340.827 358.36 342.285C357.052 343.743 356.322 344.173 356.322 344.173C356.322 344.173 354.135 341.116 352.827 340.677C351.508 340.247 356.312 334.574 356.312 334.574Z" fill="#202026" stroke="#CA3947" stroke-miterlimit="10"/>
    <path d="M354.126 332.397C354.126 332.397 357.472 334.284 356.742 335.743C356.013 337.201 353.536 340.257 352.817 340.687C352.088 341.126 350.34 340.537 349.611 339.818C348.882 339.089 348.882 339.089 348.882 339.089L354.126 332.397Z" fill="#202026" stroke="#CA3947" stroke-miterlimit="10"/>
    <path d="M344.527 301.394C344.527 301.394 349.041 300.086 351.948 294.992" stroke="#CA3947" stroke-miterlimit="10"/>
    <path d="M345.106 275.355C345.106 275.355 341.031 275.795 337.685 278.561C334.339 281.328 329.535 295.002 326.918 299.366C324.301 303.731 316.151 315.807 316.001 318.424C315.851 321.04 332.301 330.499 337.825 334.724C340.691 336.911 343.798 339.398 347.274 340.537C348.962 341.086 350.19 340.847 351.219 339.379C352.657 337.331 356.453 333.486 354.555 331.668C350.769 328.032 337.236 316.386 336.946 315.957C336.656 315.517 336.656 315.517 336.656 315.517L336.077 312.9C336.077 312.9 346.844 300.675 349.461 292.525" fill="#202026"/>
    <path d="M345.106 275.355C345.106 275.355 341.031 275.795 337.685 278.561C334.339 281.328 329.535 295.002 326.918 299.366C324.301 303.731 316.151 315.807 316.001 318.424C315.851 321.04 332.301 330.499 337.825 334.724C340.691 336.911 343.798 339.398 347.274 340.537C348.962 341.086 350.19 340.847 351.219 339.379C352.657 337.331 356.453 333.486 354.555 331.668C350.769 328.032 337.236 316.386 336.946 315.957C336.656 315.517 336.656 315.517 336.656 315.517L336.077 312.9C336.077 312.9 346.844 300.675 349.461 292.525" stroke="#CA3947" stroke-miterlimit="10"/>
    <path d="M372.753 376.334C372.753 376.334 367.709 364.309 366.93 361.782L364.403 354.411" stroke="#CA3947" stroke-miterlimit="10"/>
    <path d="M218.71 456.716C218.71 456.716 216.363 466.954 217.638 468.258C218.275 468.915 220.332 469.369 224.677 468.394C227.903 467.679 231.051 469.176 234.276 468.983C235.483 468.915 241.616 468.2 241.113 466.201C240.756 464.752 235.599 463.033 232.046 461.7C228.492 460.357 227.179 458.802 226.956 458.571C226.734 458.339 226.686 456.281 226.686 456.281L218.71 456.716Z" fill="#202026" stroke="#CA3947" stroke-miterlimit="10"/>
    <path d="M217.628 452.37L218.478 457.402C218.478 457.402 220.293 458.184 222.727 457.914C225.16 457.643 226.686 457.209 226.686 457.209L227.15 451.211L217.338 451.153L217.628 452.37Z" fill="#202026" stroke="#CA3947" stroke-miterlimit="10"/>
    <path d="M215.281 440.093C215.281 440.093 215.145 450.438 215.58 451.655C216.024 452.882 217.309 453.432 221.104 453.48C224.909 453.529 229.138 455.113 229.331 452.37C229.525 449.636 228.221 433.187 227.941 431.362C227.661 429.536 228.028 425.122 225.778 422.659C223.528 420.196 214.489 425.093 213.523 429.189C212.557 433.284 215.281 440.093 215.281 440.093Z" fill="#202026" stroke="#CA3947" stroke-miterlimit="10"/>
    <path d="M196.817 446.169C196.817 446.169 188 451.868 188 453.693C188 455.519 197.889 463.477 200.689 465.206C203.49 466.926 207.034 468.114 207.787 466.819C208.54 465.525 204.668 461.333 203.055 457.895C201.442 454.456 201.442 453.597 201.442 453.268C201.442 452.949 202.843 451.443 202.843 451.443L196.817 446.169Z" fill="#202026" stroke="#CA3947" stroke-miterlimit="10"/>
    <path d="M199.077 442.296L196.17 446.488C196.17 446.488 196.923 448.313 198.855 449.82C200.786 451.327 202.186 452.08 202.186 452.08L206.706 448.101L199.714 441.214L199.077 442.296Z" fill="#202026" stroke="#CA3947" stroke-miterlimit="10"/>
    <path d="M205.952 431.864C205.952 431.864 198.642 439.176 198.101 440.364C197.56 441.542 198.101 442.837 200.786 445.531C203.47 448.216 205.411 452.312 207.449 450.477C209.496 448.651 220.032 435.96 221.104 434.453C222.176 432.946 225.517 430.039 225.623 426.706C225.73 423.374 215.841 420.573 212.287 422.833C208.753 425.084 205.952 431.864 205.952 431.864Z" fill="#202026" stroke="#CA3947" stroke-miterlimit="10"/>
    <path d="M241.731 372.308C241.731 372.308 244.415 393.712 246.356 406.51C248.288 419.308 253.136 428.348 253.136 428.348C253.136 428.348 246.472 430.396 243.459 430.821C240.446 431.256 239.587 431.256 239.587 431.256C239.587 431.256 238.728 410.605 238.728 396.513C238.718 382.421 241.731 372.308 241.731 372.308Z" fill="#202026" stroke="#CA3947" stroke-miterlimit="10"/>
    <path d="M241.402 324.121C241.402 324.121 239.249 325.946 238.495 327.888C237.742 329.819 237.848 330.901 237.53 330.901C237.211 330.901 228.819 325.956 228.819 325.956C228.819 325.956 234.092 317.563 234.304 317.244C234.527 316.915 241.402 324.121 241.402 324.121Z" fill="#202026" stroke="#CA3947" stroke-miterlimit="10"/>
    <path d="M231.62 324.662C231.62 324.662 238.824 331.549 242.909 338.319C246.994 345.1 251.407 354.556 251.725 354.884C252.044 355.203 246.134 356.603 246.134 356.603L250.972 361.983C250.972 361.983 246.453 368.542 245.381 371.014C244.309 373.487 243.015 374.887 243.015 374.887C243.015 374.887 243.227 394.137 243.227 405.863C243.227 417.589 245.053 431.246 245.053 431.246C245.053 431.246 242.899 434.047 231.069 435.119C219.24 436.191 207.304 433.506 204.185 432.647C201.066 431.787 199.347 431.468 199.347 431.468C199.347 431.468 202.891 407.263 205.044 388.979C207.198 370.695 215.261 343.912 216.121 337.894C216.98 331.867 220.64 325.521 223.759 323.908C226.888 322.295 231.62 324.662 231.62 324.662Z" fill="#202026" stroke="#CA3947" stroke-miterlimit="10"/>
    <path d="M229.795 329.182C229.795 329.182 240.012 344.134 241.518 359.51" stroke="#CA3947" stroke-miterlimit="10"/>
    <path d="M243.344 404.366C243.344 404.366 241.518 420.93 241.19 426.088C240.871 431.256 239.684 435.766 239.684 435.766C239.684 435.766 241.084 435.554 242.484 435.013C243.884 434.472 245.922 433.4 245.922 433.4C245.922 433.4 243.237 413.503 243.344 404.366Z" fill="#202026" stroke="#CA3947" stroke-miterlimit="10"/>
    <path d="M251.726 307.025C251.726 307.025 251.938 310.57 251.291 312.192C250.644 313.805 249.785 314.993 249.997 315.853C250.21 316.713 250.857 318.538 250.644 319.185C250.432 319.832 248.597 320.586 248.597 320.586C248.597 320.586 245.69 324.672 244.831 325.531C242.281 328.081 234.884 322.518 234.189 319.939C233.87 318.76 234.623 310.473 239.239 306.388C243.875 302.292 251.726 307.025 251.726 307.025Z" fill="#202026" stroke="#CA3947" stroke-miterlimit="10"/>
    <path d="M255.385 305.084C255.385 305.084 243.662 314.868 239.79 316.703C235.917 318.529 234.739 320.789 232.586 326.169C230.432 331.548 230.654 342.299 225.382 345.641C220.109 348.973 212.905 348.867 207.101 343.274C201.297 337.682 204.523 326.603 210.327 322.943C216.13 319.282 224.194 315.418 225.169 310.792C226.135 306.165 228.501 298.747 236.033 297.241C243.556 295.734 250.122 301.761 253.242 302.621C256.351 303.471 256.457 304.011 255.385 305.084Z" fill="#202026" stroke="#CA3947" stroke-miterlimit="10"/>
    <path d="M200.757 360.477C200.757 360.477 218.931 355.956 223.016 356.285C227.101 356.603 243.343 361.665 243.343 361.665L241.296 371.671C241.296 371.671 245.381 390.708 244.097 392.003C242.803 393.297 227.641 394.369 215.493 393.828C203.345 393.287 199.366 393.828 199.144 391.143C198.932 388.458 201.945 373.284 201.945 373.284L200.757 360.477Z" fill="#202026" stroke="#CA3947" stroke-miterlimit="10"/>
    <path d="M207.758 361.21C207.893 360.254 211.06 337.798 215.348 332.302C220.003 326.333 225.401 330.158 225.459 330.196L225.546 330.264C225.768 330.476 231.04 335.451 232.914 338.744C234.768 342.028 236.97 358.97 237.211 360.892" stroke="#CA3947" stroke-miterlimit="10"/>
    <path d="M201.945 373.274L204.09 365.209" stroke="#CA3947" stroke-miterlimit="10"/>
    <path d="M241.297 371.661L240.118 366.504" stroke="#CA3947" stroke-miterlimit="10"/>
    <path d="M231.939 347.466C231.939 347.466 229.891 341.12 230.114 340.367C230.326 339.614 231.939 337.566 232.692 337.247C233.445 336.928 237.965 338.542 238.389 338.754C238.824 338.967 239.036 340.048 239.143 340.686C239.249 341.333 239.896 342.405 239.577 343.052C239.259 343.699 238.177 343.593 238.177 343.593C238.177 343.593 238.177 347.572 237.636 348.22C237.095 348.867 236.448 349.833 236.448 349.833L231.939 347.466Z" fill="#202026" stroke="#CA3947" stroke-miterlimit="10"/>
    <path d="M227.641 352.624L231.938 346.713L236.776 349.079C236.776 349.079 235.598 351.552 234.092 354.459C232.585 357.366 231.726 359.086 231.726 359.086L227.641 352.624Z" fill="#202026" stroke="#CA3947" stroke-miterlimit="10"/>
    <path d="M226.347 352.952C226.347 352.952 227.747 338.541 226.994 334.349C226.241 330.158 221.297 328.11 217.965 331.123C214.633 334.137 214.421 341.13 214.421 345.969C214.421 350.808 215.715 366.832 216.352 371.033C216.999 375.225 219.79 375.225 220.978 374.047C222.156 372.869 233.879 358.67 233.879 358.67L227.747 351.784L226.347 352.952Z" fill="#202026" stroke="#CA3947" stroke-miterlimit="10"/>
    <path d="M226.348 352.952L218.497 360.805" stroke="#CA3947" stroke-miterlimit="10"/>
    <path d="M238.177 343.593V342.086" stroke="#CA3947" stroke-miterlimit="10"/>
</svg>
