<svg width="33" height="41" viewBox="0 0 33 41" fill="none" xmlns="http://www.w3.org/2000/svg">
    <path d="M27.5596 21.4225C27.5136 16.3198 31.7484 13.8701 31.94 13.7507C29.5569 10.282 25.8482 9.80681 24.5252 9.7509C21.3707 9.43326 18.367 11.5983 16.7681 11.5983C15.1692 11.5983 12.6967 9.79665 10.0812 9.84747C6.63813 9.8983 3.46837 11.8372 1.69576 14.9018C-1.87756 21.0692 0.783916 30.2098 4.26273 35.2159C5.96638 37.6631 7.99441 40.4202 10.661 40.3186C13.2305 40.2169 14.2011 38.6668 17.3019 38.6668C20.4027 38.6668 21.2762 40.3186 23.9913 40.2703C26.7524 40.2169 28.5046 37.7698 30.1955 35.315C32.1469 32.474 32.954 29.7245 33 29.5796C32.9387 29.5542 27.6157 27.5238 27.5596 21.4225Z" fill="white"/>
    <path d="M22.4587 6.43925C23.8737 4.73413 24.829 2.36319 24.5658 0C22.5274 0.0814053 20.0602 1.35193 18.5967 3.05705C17.2864 4.56403 16.137 6.97806 16.4485 9.29314C18.7218 9.46848 21.0435 8.14187 22.4587 6.43925Z" fill="white"/>
</svg>
