<svg width="53" height="59" viewBox="0 0 53 59" fill="none" xmlns="http://www.w3.org/2000/svg">
    <path fill-rule="evenodd" clip-rule="evenodd" d="M47.375 19.875C47.375 30.8637 39.2723 44.1291 26.75 52.1875C14.2277 44.1291 6.125 30.8637 6.125 19.875L6.12501 16.4375C13.4911 14.9723 20.8571 11.8955 26.75 7.5C32.6429 11.8955 40.0089 14.9723 47.375 16.4375V19.875ZM28.5092 39.1427L41.5717 22.6427L38.0533 19.8573L26.5548 34.3816L19.3991 27.2259L16.2259 30.3991L25.1634 39.3366L26.9452 41.1184L28.5092 39.1427Z" fill="#82828C"/>
    <path opacity="0.4" d="M45.8791 19.875C45.8791 29.9901 38.5018 42.4941 26.75 50.397C14.9982 42.4941 7.62084 29.9901 7.62084 19.875L7.62085 17.6511C14.4093 16.1432 21.15 13.3107 26.75 9.34873C32.35 13.3107 39.0907 16.1432 45.8791 17.6511V19.875Z" stroke="url(#paint0_linear)" stroke-width="2.9917"/>
    <path d="M26.75 57C40.8437 49.0938 51.5 34.6563 51.5 18.5V13C42.2187 11.7665 33.5228 7.65963 26.75 2C19.9772 7.65963 11.2812 11.7665 1.99999 13V18.5C1.99999 34.6563 12.6563 49.0938 26.75 57Z" stroke="#CA3947" stroke-width="2.24378"/>
    <defs>
        <linearGradient id="paint0_linear" x1="21.9375" y1="16.7813" x2="35.6407" y2="39.1536" gradientUnits="userSpaceOnUse">
            <stop stop-color="white"/>
            <stop offset="1" stop-color="white" stop-opacity="0"/>
        </linearGradient>
    </defs>
</svg>
