<svg width="76" height="84" viewBox="0 0 76 84" fill="none" xmlns="http://www.w3.org/2000/svg">
    <path fill-rule="evenodd" clip-rule="evenodd" d="M68 28C68 43.9836 56.2143 63.2787 38 75C19.7857 63.2787 8 43.9836 8 28L8.00002 23C18.7143 20.8689 29.4286 16.3934 38 10C46.5714 16.3934 57.2857 20.8689 68 23V28ZM40.3522 55.8621L59.3522 31.8621L54.6479 28.1379L37.7391 49.4964L27.1213 38.8787L22.8787 43.1213L35.8787 56.1213L38.261 58.5036L40.3522 55.8621Z" fill="#82828C"/>
    <path opacity="0.4" d="M66 28C66 42.8148 55.1851 61.0926 38 72.6074C20.8149 61.0926 9.99998 42.8148 9.99998 28L9.99999 24.6242C19.9414 22.4341 29.8179 18.2861 38 12.4736C46.182 18.2861 56.0586 22.4341 66 24.6242V28Z" stroke="url(#paint0_linear)" stroke-width="4"/>
    <path d="M38 82C58.5 70.5 74 49.5 74 26V18C60.5 16.2058 47.8513 10.2322 38 2C28.1486 10.2322 15.5 16.2058 1.99999 18V26C1.99999 49.5 17.5 70.5 38 82Z" stroke="#CA3947" stroke-width="3"/>
    <defs>
        <linearGradient id="paint0_linear" x1="31" y1="23.5" x2="50.932" y2="56.0417" gradientUnits="userSpaceOnUse">
            <stop stop-color="white"/>
            <stop offset="1" stop-color="white" stop-opacity="0"/>
        </linearGradient>
    </defs>
</svg>
