<svg width="71" height="79" viewBox="0 0 71 79" fill="none" xmlns="http://www.w3.org/2000/svg">
    <path d="M6.00195 63L70.002 63" stroke="#CA3947" stroke-width="4"/>
    <path d="M7.00195 65L7.00195 0" stroke="#CA3947" stroke-width="4"/>
    <mask id="mask0" mask-type="alpha" maskUnits="userSpaceOnUse" x="0" y="0" width="71" height="79">
        <rect x="0.00195312" width="70" height="79" fill="#C4C4C4"/>
    </mask>
    <g mask="url(#mask0)">
        <path d="M-1.99805 36L24.0019 60L33.0019 67L42.0019 71L51.0019 74L66.0019 76H70.0019" stroke="#82828C" stroke-width="5"/>
        <path opacity="0.4" d="M-1.99805 34L24.5019 58.5L33.5019 65.5L42.5019 69.5L51.5019 72.5L66.0019 74.5H70.0019" stroke="url(#paint0_linear)" stroke-width="2"/>
        <path d="M-1.99805 25L15.5019 41L24.5019 48L33.5019 54.5L43.0019 58.5L51.0019 61L66.0019 63H70.0019" stroke="#82828C" stroke-width="5"/>
        <path opacity="0.4" d="M-1.99805 23L15.5019 39L25.0019 46.5L34.0019 53L44.5019 57.5L51.5019 59.5L66.0019 61.5H70.0019" stroke="url(#paint1_linear)" stroke-width="2"/>
        <path d="M-1.99805 14L15.0019 29L24.5019 37L33.0019 42L42.5019 46L51.0019 48L67.0019 50H70.0019" stroke="#82828C" stroke-width="5"/>
        <path opacity="0.4" d="M-1.99805 12L15.5019 27.5L25.0019 35.5L33.5019 40.5L43.0019 44.5L52.0019 47L67.5019 49H70.0019" stroke="url(#paint2_linear)" stroke-width="2"/>
        <path d="M-1.99805 3L27.002 28.5L38.502 32.5L50.002 35.5L66.002 37H70.002" stroke="#82828C" stroke-width="5"/>
        <path opacity="0.4" d="M-0.998047 2L27.502 27L38.502 31L50.502 34L66.002 35.5H70.002" stroke="url(#paint3_linear)" stroke-width="2"/>
    </g>
    <defs>
        <linearGradient id="paint0_linear" x1="0.501887" y1="36.3824" x2="61.4699" y2="58.9519" gradientUnits="userSpaceOnUse">
            <stop stop-color="white"/>
            <stop offset="1" stop-color="white" stop-opacity="0"/>
        </linearGradient>
        <linearGradient id="paint1_linear" x1="0.501889" y1="25.2647" x2="60.6966" y2="48.7056" gradientUnits="userSpaceOnUse">
            <stop stop-color="white"/>
            <stop offset="1" stop-color="white" stop-opacity="0"/>
        </linearGradient>
        <linearGradient id="paint2_linear" x1="0.501889" y1="14.1471" x2="59.8172" y2="38.5112" gradientUnits="userSpaceOnUse">
            <stop stop-color="white"/>
            <stop offset="1" stop-color="white" stop-opacity="0"/>
        </linearGradient>
        <linearGradient id="paint3_linear" x1="1.46717" y1="3.9706" x2="58.6835" y2="29.2215" gradientUnits="userSpaceOnUse">
            <stop stop-color="white"/>
            <stop offset="1" stop-color="white" stop-opacity="0"/>
        </linearGradient>
    </defs>
</svg>
