<svg width="61" height="55" viewBox="0 0 61 55" fill="none" xmlns="http://www.w3.org/2000/svg">
    <path d="M49.7262 31.108C49.7262 28.5596 49.2242 26.0362 48.249 23.6819C47.2738 21.3275 45.8444 19.1883 44.0425 17.3863C42.2405 15.5844 40.1013 14.155 37.7469 13.1798C35.3926 12.2046 32.8692 11.7026 30.3209 11.7026C27.7725 11.7026 25.2491 12.2046 22.8948 13.1798C20.5404 14.155 18.4012 15.5844 16.5992 17.3863C14.7973 19.1883 13.3679 21.3275 12.3927 23.6819C11.4175 26.0362 10.9155 28.5596 10.9155 31.108" stroke="#82828C" stroke-width="14.9759"/>
    <path opacity="0.4" d="M44.8751 31.1079C44.8751 29.1967 44.4986 27.3041 43.7672 25.5384C43.0358 23.7726 41.9638 22.1682 40.6123 20.8167C39.2608 19.4653 37.6564 18.3932 35.8907 17.6618C34.1249 16.9304 32.2323 16.554 30.3211 16.554C28.4098 16.554 26.5173 16.9304 24.7515 17.6618C22.9857 18.3932 21.3813 19.4653 20.0299 20.8167C18.6784 22.1682 17.6064 23.7726 16.8749 25.5384C16.1435 27.3041 15.7671 29.1967 15.7671 31.1079" stroke="url(#paint0_linear)" stroke-width="2.99518"/>
    <path opacity="0.4" d="M54.5773 31.108C54.5773 27.9225 53.9499 24.7683 52.7308 21.8254C51.5118 18.8824 49.7251 16.2084 47.4727 13.9559C45.2202 11.7035 42.5462 9.91676 39.6032 8.69775C36.6603 7.47873 33.506 6.85132 30.3206 6.85132C27.1352 6.85132 23.981 7.47874 21.038 8.69775C18.095 9.91676 15.421 11.7035 13.1686 13.9559C10.9161 16.2084 9.1294 18.8824 7.91039 21.8254C6.69138 24.7683 6.06396 27.9225 6.06396 31.108" stroke="url(#paint1_linear)" stroke-width="2.99518"/>
    <path d="M59.4289 31.108C59.4289 27.2855 58.676 23.5004 57.2131 19.9688C55.7503 16.4373 53.6063 13.2285 50.9033 10.5255C48.2004 7.8226 44.9916 5.67853 41.46 4.21571C37.9285 2.7529 34.1434 2 30.3209 2C26.4984 2 22.7133 2.7529 19.1817 4.21571C15.6502 5.67853 12.4413 7.82261 9.73842 10.5255C7.03549 13.2285 4.89142 16.4373 3.4286 19.9688C1.96579 23.5004 1.21289 27.2855 1.21289 31.108" stroke="#CA3947" stroke-width="2.24638"/>
    <path d="M48.0078 12.1964L24.8525 30.206L29.9981 35.3516L48.0078 12.1964Z" fill="#CA3947"/>
    <defs>
        <linearGradient id="paint0_linear" x1="31.5597" y1="17.4636" x2="31.5812" y2="23.8538" gradientUnits="userSpaceOnUse">
            <stop stop-color="white"/>
            <stop offset="1" stop-color="white" stop-opacity="0"/>
        </linearGradient>
        <linearGradient id="paint1_linear" x1="19.1756" y1="10.8941" x2="24.7763" y2="22.1963" gradientUnits="userSpaceOnUse">
            <stop stop-color="white"/>
            <stop offset="1" stop-color="white" stop-opacity="0"/>
        </linearGradient>
    </defs>
</svg>
