<svg width="100" height="90" viewBox="0 0 100 90" fill="none" xmlns="http://www.w3.org/2000/svg">
    <path d="M82 49.9999C82 45.7976 81.1723 41.6364 79.5641 37.754C77.956 33.8716 75.5989 30.3439 72.6274 27.3725C69.6559 24.401 66.1283 22.0439 62.2459 20.4357C58.3635 18.8276 54.2023 17.9999 50 17.9999C45.7977 17.9999 41.6365 18.8276 37.7541 20.4357C33.8717 22.0439 30.3441 24.401 27.3726 27.3725C24.4011 30.3439 22.044 33.8716 20.4359 37.754C18.8277 41.6364 18 45.7976 18 49.9999" stroke="#82828C" stroke-width="20"/>
    <path opacity="0.4" d="M74 49.9999C74 46.8482 73.3792 43.7273 72.1731 40.8155C70.967 37.9037 69.1992 35.2579 66.9706 33.0293C64.742 30.8007 62.0962 29.0329 59.1844 27.8268C56.2726 26.6207 53.1517 25.9999 50 25.9999C46.8483 25.9999 43.7274 26.6207 40.8156 27.8268C37.9038 29.0329 35.258 30.8007 33.0294 33.0293C30.8008 35.2579 29.033 37.9037 27.8269 40.8155C26.6208 43.7273 26 46.8482 26 49.9999" stroke="url(#paint0_linear)" stroke-width="4"/>
    <path opacity="0.4" d="M90 49.9999C90 44.747 88.9654 39.5456 86.9552 34.6925C84.945 29.8395 81.9986 25.4299 78.2843 21.7156C74.5699 18.0013 70.1604 15.0549 65.3073 13.0447C60.4543 11.0345 55.2529 9.99988 50 9.99988C44.7471 9.99988 39.5457 11.0345 34.6927 13.0447C29.8396 15.0549 25.4301 18.0013 21.7157 21.7156C18.0014 25.43 15.055 29.8395 13.0448 34.6925C11.0346 39.5456 10 44.747 10 49.9999" stroke="url(#paint1_linear)" stroke-width="4"/>
    <path d="M98 49.9999C98 43.6964 96.7584 37.4547 94.3462 31.6311C91.934 25.8074 88.3983 20.516 83.9411 16.0588C79.4839 11.6015 74.1924 8.06588 68.3688 5.65366C62.5452 3.24143 56.3034 1.99988 50 1.99988C43.6965 1.99988 37.4548 3.24143 31.6312 5.65366C25.8076 8.06589 20.5161 11.6015 16.0589 16.0588C11.6017 20.516 8.06601 25.8074 5.65378 31.6311C3.24156 37.4547 2 43.6964 2 49.9999" stroke="#CA3947" stroke-width="3"/>
    <path d="M79.1665 18.8139L40.9828 48.5124L49.4681 56.9976L79.1665 18.8139Z" fill="#CA3947"/>
    <defs>
        <linearGradient id="paint0_linear" x1="52.0426" y1="27.4999" x2="52.078" y2="38.0376" gradientUnits="userSpaceOnUse">
            <stop stop-color="white"/>
            <stop offset="1" stop-color="white" stop-opacity="0"/>
        </linearGradient>
        <linearGradient id="paint1_linear" x1="31.6216" y1="16.6666" x2="40.8573" y2="35.3043" gradientUnits="userSpaceOnUse">
            <stop stop-color="white"/>
            <stop offset="1" stop-color="white" stop-opacity="0"/>
        </linearGradient>
    </defs>
</svg>
